<svg xmlns="http://www.w3.org/2000/svg" width="770" height="770" viewBox="0 0 770 770">
<defs>
<linearGradient id="cab" x1="0" y1="0" x2="0" y2="1"><stop offset="0" stop-color="#1c1c20"/><stop offset="1" stop-color="#0c0c0e"/></linearGradient>
<linearGradient id="side" x1="0" y1="0" x2="1" y2="0"><stop offset="0" stop-color="#000" stop-opacity="0.55"/><stop offset="0.12" stop-color="#000" stop-opacity="0"/><stop offset="0.88" stop-color="#000" stop-opacity="0"/><stop offset="1" stop-color="#000" stop-opacity="0.55"/></linearGradient>
<radialGradient id="marqglow" cx="0.5" cy="0.5" r="0.7"><stop offset="0" stop-color="#ffe24a" stop-opacity="0.85"/><stop offset="0.5" stop-color="#ffe24a" stop-opacity="0.35"/><stop offset="1" stop-color="#ffe24a" stop-opacity="0"/></radialGradient>
<radialGradient id="barrel" cx="0.5" cy="0.5" r="0.75"><stop offset="0.6" stop-color="#000" stop-opacity="0"/><stop offset="1" stop-color="#000" stop-opacity="0.55"/></radialGradient>
<filter id="ph" x="-40%" y="-40%" width="180%" height="180%"><feGaussianBlur stdDeviation="2.2" result="b"/><feMerge><feMergeNode in="b"/><feMergeNode in="SourceGraphic"/></feMerge></filter>
</defs>
<rect x="0" y="0" width="770" height="770" fill="#000"/>
<g transform="translate(175,0)">
<rect x="0" y="0" width="420" height="770" rx="0" ry="0" fill="url(#cab)" opacity="1"/>
<rect x="0" y="0" width="420" height="770" rx="0" ry="0" fill="url(#side)" opacity="1"/>
<rect x="0" y="0" width="420" height="770" fill="url(#barrel)" opacity="0.5"/>
<rect x="10" y="12" width="400" height="92" rx="6" ry="6" fill="#08080a" opacity="1" stroke="#3a3a44" stroke-width="1.5"/>
<ellipse cx="210.0" cy="58.0" rx="176.4" ry="34" fill="url(#marqglow)"/>
<text x="210.0" y="54.0" font-family="Menlo, monospace" font-size="22" font-weight="800" fill="#1a1404" text-anchor="middle" letter-spacing="1" opacity="1">I N T E R V A L   R U N</text>
<text x="210.0" y="54.0" font-family="Menlo, monospace" font-size="22" font-weight="800" fill="#ffe24a" text-anchor="middle" letter-spacing="1" opacity="0.92">I N T E R V A L   R U N</text>
<text x="210.0" y="90" font-family="Menlo, monospace" font-size="11" font-weight="700" fill="#7a5e08" text-anchor="middle" letter-spacing="2" opacity="1">★  PLAYER 1  ★</text>
<rect x="10" y="118" width="400" height="430" rx="10" ry="10" fill="#3a3a44" opacity="1"/>
<rect x="10" y="118" width="400" height="430" rx="10" ry="10" fill="#141418" opacity="0.0"/>
<path d="M14,542 L14,122 L406,122" fill="none" stroke="#55555f" stroke-width="3" opacity="0.7"/>
<path d="M14,542 L406,542 L406,122" fill="none" stroke="#000" stroke-width="3" opacity="0.8"/>
<circle cx="22" cy="130" r="4" fill="#0a0a0c"/>
<circle cx="21" cy="129" r="1.6" fill="#5a5a64"/>
<circle cx="398" cy="130" r="4" fill="#0a0a0c"/>
<circle cx="397" cy="129" r="1.6" fill="#5a5a64"/>
<circle cx="22" cy="536" r="4" fill="#0a0a0c"/>
<circle cx="21" cy="535" r="1.6" fill="#5a5a64"/>
<circle cx="398" cy="536" r="4" fill="#0a0a0c"/>
<circle cx="397" cy="535" r="1.6" fill="#5a5a64"/>
<rect x="26" y="134" width="368" height="398" rx="8" ry="8" fill="#03110a" opacity="1"/>
<rect x="26" y="137" width="368" height="1.4" fill="#000" opacity="0.30"/><rect x="26" y="141" width="368" height="1.4" fill="#000" opacity="0.30"/><rect x="26" y="145" width="368" height="1.4" fill="#000" opacity="0.30"/><rect x="26" y="149" width="368" height="1.4" fill="#000" opacity="0.30"/><rect x="26" y="153" width="368" height="1.4" fill="#000" opacity="0.30"/><rect x="26" y="157" width="368" height="1.4" fill="#000" opacity="0.30"/><rect x="26" y="161" width="368" height="1.4" fill="#000" opacity="0.30"/><rect x="26" y="165" width="368" height="1.4" fill="#000" opacity="0.30"/><rect x="26" y="169" width="368" height="1.4" fill="#000" opacity="0.30"/><rect x="26" y="173" width="368" height="1.4" fill="#000" opacity="0.30"/><rect x="26" y="177" width="368" height="1.4" fill="#000" opacity="0.30"/><rect x="26" y="181" width="368" height="1.4" fill="#000" opacity="0.30"/><rect x="26" y="185" width="368" height="1.4" fill="#000" opacity="0.30"/><rect x="26" y="189" width="368" height="1.4" fill="#000" opacity="0.30"/><rect x="26" y="193" width="368" height="1.4" fill="#000" opacity="0.30"/><rect x="26" y="197" width="368" height="1.4" fill="#000" opacity="0.30"/><rect x="26" y="201" width="368" height="1.4" fill="#000" opacity="0.30"/><rect x="26" y="205" width="368" height="1.4" fill="#000" opacity="0.30"/><rect x="26" y="209" width="368" height="1.4" fill="#000" opacity="0.30"/><rect x="26" y="213" width="368" height="1.4" fill="#000" opacity="0.30"/><rect x="26" y="217" width="368" height="1.4" fill="#000" opacity="0.30"/><rect x="26" y="221" width="368" height="1.4" fill="#000" opacity="0.30"/><rect x="26" y="225" width="368" height="1.4" fill="#000" opacity="0.30"/><rect x="26" y="229" width="368" height="1.4" fill="#000" opacity="0.30"/><rect x="26" y="233" width="368" height="1.4" fill="#000" opacity="0.30"/><rect x="26" y="237" width="368" height="1.4" fill="#000" opacity="0.30"/><rect x="26" y="241" width="368" height="1.4" fill="#000" opacity="0.30"/><rect x="26" y="245" width="368" height="1.4" fill="#000" opacity="0.30"/><rect x="26" y="249" width="368" height="1.4" fill="#000" opacity="0.30"/><rect x="26" y="253" width="368" height="1.4" fill="#000" opacity="0.30"/><rect x="26" y="257" width="368" height="1.4" fill="#000" opacity="0.30"/><rect x="26" y="261" width="368" height="1.4" fill="#000" opacity="0.30"/><rect x="26" y="265" width="368" height="1.4" fill="#000" opacity="0.30"/><rect x="26" y="269" width="368" height="1.4" fill="#000" opacity="0.30"/><rect x="26" y="273" width="368" height="1.4" fill="#000" opacity="0.30"/><rect x="26" y="277" width="368" height="1.4" fill="#000" opacity="0.30"/><rect x="26" y="281" width="368" height="1.4" fill="#000" opacity="0.30"/><rect x="26" y="285" width="368" height="1.4" fill="#000" opacity="0.30"/><rect x="26" y="289" width="368" height="1.4" fill="#000" opacity="0.30"/><rect x="26" y="293" width="368" height="1.4" fill="#000" opacity="0.30"/><rect x="26" y="297" width="368" height="1.4" fill="#000" opacity="0.30"/><rect x="26" y="301" width="368" height="1.4" fill="#000" opacity="0.30"/><rect x="26" y="305" width="368" height="1.4" fill="#000" opacity="0.30"/><rect x="26" y="309" width="368" height="1.4" fill="#000" opacity="0.30"/><rect x="26" y="313" width="368" height="1.4" fill="#000" opacity="0.30"/><rect x="26" y="317" width="368" height="1.4" fill="#000" opacity="0.30"/><rect x="26" y="321" width="368" height="1.4" fill="#000" opacity="0.30"/><rect x="26" y="325" width="368" height="1.4" fill="#000" opacity="0.30"/><rect x="26" y="329" width="368" height="1.4" fill="#000" opacity="0.30"/><rect x="26" y="333" width="368" height="1.4" fill="#000" opacity="0.30"/><rect x="26" y="337" width="368" height="1.4" fill="#000" opacity="0.30"/><rect x="26" y="341" width="368" height="1.4" fill="#000" opacity="0.30"/><rect x="26" y="345" width="368" height="1.4" fill="#000" opacity="0.30"/><rect x="26" y="349" width="368" height="1.4" fill="#000" opacity="0.30"/><rect x="26" y="353" width="368" height="1.4" fill="#000" opacity="0.30"/><rect x="26" y="357" width="368" height="1.4" fill="#000" opacity="0.30"/><rect x="26" y="361" width="368" height="1.4" fill="#000" opacity="0.30"/><rect x="26" y="365" width="368" height="1.4" fill="#000" opacity="0.30"/><rect x="26" y="369" width="368" height="1.4" fill="#000" opacity="0.30"/><rect x="26" y="373" width="368" height="1.4" fill="#000" opacity="0.30"/><rect x="26" y="377" width="368" height="1.4" fill="#000" opacity="0.30"/><rect x="26" y="381" width="368" height="1.4" fill="#000" opacity="0.30"/><rect x="26" y="385" width="368" height="1.4" fill="#000" opacity="0.30"/><rect x="26" y="389" width="368" height="1.4" fill="#000" opacity="0.30"/><rect x="26" y="393" width="368" height="1.4" fill="#000" opacity="0.30"/><rect x="26" y="397" width="368" height="1.4" fill="#000" opacity="0.30"/><rect x="26" y="401" width="368" height="1.4" fill="#000" opacity="0.30"/><rect x="26" y="405" width="368" height="1.4" fill="#000" opacity="0.30"/><rect x="26" y="409" width="368" height="1.4" fill="#000" opacity="0.30"/><rect x="26" y="413" width="368" height="1.4" fill="#000" opacity="0.30"/><rect x="26" y="417" width="368" height="1.4" fill="#000" opacity="0.30"/><rect x="26" y="421" width="368" height="1.4" fill="#000" opacity="0.30"/><rect x="26" y="425" width="368" height="1.4" fill="#000" opacity="0.30"/><rect x="26" y="429" width="368" height="1.4" fill="#000" opacity="0.30"/><rect x="26" y="433" width="368" height="1.4" fill="#000" opacity="0.30"/><rect x="26" y="437" width="368" height="1.4" fill="#000" opacity="0.30"/><rect x="26" y="441" width="368" height="1.4" fill="#000" opacity="0.30"/><rect x="26" y="445" width="368" height="1.4" fill="#000" opacity="0.30"/><rect x="26" y="449" width="368" height="1.4" fill="#000" opacity="0.30"/><rect x="26" y="453" width="368" height="1.4" fill="#000" opacity="0.30"/><rect x="26" y="457" width="368" height="1.4" fill="#000" opacity="0.30"/><rect x="26" y="461" width="368" height="1.4" fill="#000" opacity="0.30"/><rect x="26" y="465" width="368" height="1.4" fill="#000" opacity="0.30"/><rect x="26" y="469" width="368" height="1.4" fill="#000" opacity="0.30"/><rect x="26" y="473" width="368" height="1.4" fill="#000" opacity="0.30"/><rect x="26" y="477" width="368" height="1.4" fill="#000" opacity="0.30"/><rect x="26" y="481" width="368" height="1.4" fill="#000" opacity="0.30"/><rect x="26" y="485" width="368" height="1.4" fill="#000" opacity="0.30"/><rect x="26" y="489" width="368" height="1.4" fill="#000" opacity="0.30"/><rect x="26" y="493" width="368" height="1.4" fill="#000" opacity="0.30"/><rect x="26" y="497" width="368" height="1.4" fill="#000" opacity="0.30"/><rect x="26" y="501" width="368" height="1.4" fill="#000" opacity="0.30"/><rect x="26" y="505" width="368" height="1.4" fill="#000" opacity="0.30"/><rect x="26" y="509" width="368" height="1.4" fill="#000" opacity="0.30"/><rect x="26" y="513" width="368" height="1.4" fill="#000" opacity="0.30"/><rect x="26" y="517" width="368" height="1.4" fill="#000" opacity="0.30"/><rect x="26" y="521" width="368" height="1.4" fill="#000" opacity="0.30"/><rect x="26" y="525" width="368" height="1.4" fill="#000" opacity="0.30"/><rect x="26" y="529" width="368" height="1.4" fill="#000" opacity="0.30"/>
<rect x="26" y="134" width="368" height="398" rx="8" fill="url(#barrel)" opacity="0.7"/>
<text x="40" y="158" font-family="Menlo, monospace" font-size="11" font-weight="800" fill="#28e6ff" text-anchor="start" letter-spacing="1" opacity="1">1UP</text>
<text x="40" y="184" font-family="Menlo, monospace" font-size="26" font-weight="800" fill="#ffd400" filter="url(#ph)">142</text>
<text x="100" y="184" font-family="Menlo, monospace" font-size="13" font-weight="700" fill="#ffd400" text-anchor="start" letter-spacing="0" opacity="1">♥ Z3</text>
<text x="380" y="158" font-family="Menlo, monospace" font-size="11" font-weight="800" fill="#27ff5e" text-anchor="end" letter-spacing="1" opacity="1">HI-SCORE</text>
<text x="380" y="184" font-family="Menlo, monospace" font-size="26" font-weight="800" fill="#27ff5e" text-anchor="end" filter="url(#ph)">03280</text>
<text x="380" y="198" font-family="Menlo, monospace" font-size="9" font-weight="700" fill="#2c6b40" text-anchor="end" letter-spacing="1" opacity="1">STEPS</text>
<g filter="url(#ph)"><polygon points="65.544,230.752 71.088,226.792 92.912,226.792 98.456,230.752 92.912,234.71200000000002 71.088,234.71200000000002" fill="#27ff5e" opacity="1"/>
<polygon points="65.544,268.0 71.088,264.04 92.912,264.04 98.456,268.0 92.912,271.96 71.088,271.96" fill="#0d5a26" opacity="0.16"/>
<polygon points="65.544,305.248 71.088,301.288 92.912,301.288 98.456,305.248 92.912,309.20799999999997 71.088,309.20799999999997" fill="#27ff5e" opacity="1"/>
<polygon points="64.752,233.128 68.71199999999999,238.672 68.71199999999999,260.872 64.752,266.416 60.791999999999994,260.872 60.791999999999994,238.672" fill="#27ff5e" opacity="1"/>
<polygon points="99.248,233.128 103.208,238.672 103.208,260.872 99.248,266.416 95.28800000000001,260.872 95.28800000000001,238.672" fill="#27ff5e" opacity="1"/>
<polygon points="64.752,269.584 68.71199999999999,275.128 68.71199999999999,297.32800000000003 64.752,302.872 60.791999999999994,297.32800000000003 60.791999999999994,275.128" fill="#27ff5e" opacity="1"/>
<polygon points="99.248,269.584 103.208,275.128 103.208,297.32800000000003 99.248,302.872 95.28800000000001,297.32800000000003 95.28800000000001,275.128" fill="#27ff5e" opacity="1"/>
<polygon points="123.544,230.752 129.088,226.792 150.91199999999998,226.792 156.456,230.752 150.91199999999998,234.71200000000002 129.088,234.71200000000002" fill="#0d5a26" opacity="0.16"/>
<polygon points="123.544,268.0 129.088,264.04 150.91199999999998,264.04 156.456,268.0 150.91199999999998,271.96 129.088,271.96" fill="#0d5a26" opacity="0.16"/>
<polygon points="123.544,305.248 129.088,301.288 150.91199999999998,301.288 156.456,305.248 150.91199999999998,309.20799999999997 129.088,309.20799999999997" fill="#0d5a26" opacity="0.16"/>
<polygon points="122.752,233.128 126.71199999999999,238.672 126.71199999999999,260.872 122.752,266.416 118.792,260.872 118.792,238.672" fill="#0d5a26" opacity="0.16"/>
<polygon points="157.248,233.128 161.208,238.672 161.208,260.872 157.248,266.416 153.28799999999998,260.872 153.28799999999998,238.672" fill="#27ff5e" opacity="1"/>
<polygon points="122.752,269.584 126.71199999999999,275.128 126.71199999999999,297.32800000000003 122.752,302.872 118.792,297.32800000000003 118.792,275.128" fill="#0d5a26" opacity="0.16"/>
<polygon points="157.248,269.584 161.208,275.128 161.208,297.32800000000003 157.248,302.872 153.28799999999998,297.32800000000003 153.28799999999998,275.128" fill="#27ff5e" opacity="1"/>
<circle cx="183.0" cy="254.56" r="5.04" fill="#27ff5e"/>
<circle cx="183.0" cy="281.44" r="5.04" fill="#27ff5e"/>
<polygon points="195.544,230.752 201.08800000000002,226.792 222.91199999999998,226.792 228.456,230.752 222.91199999999998,234.71200000000002 201.08800000000002,234.71200000000002" fill="#0d5a26" opacity="0.16"/>
<polygon points="195.544,268.0 201.08800000000002,264.04 222.91199999999998,264.04 228.456,268.0 222.91199999999998,271.96 201.08800000000002,271.96" fill="#27ff5e" opacity="1"/>
<polygon points="195.544,305.248 201.08800000000002,301.288 222.91199999999998,301.288 228.456,305.248 222.91199999999998,309.20799999999997 201.08800000000002,309.20799999999997" fill="#0d5a26" opacity="0.16"/>
<polygon points="194.752,233.128 198.71200000000002,238.672 198.71200000000002,260.872 194.752,266.416 190.792,260.872 190.792,238.672" fill="#27ff5e" opacity="1"/>
<polygon points="229.248,233.128 233.208,238.672 233.208,260.872 229.248,266.416 225.28799999999998,260.872 225.28799999999998,238.672" fill="#27ff5e" opacity="1"/>
<polygon points="194.752,269.584 198.71200000000002,275.128 198.71200000000002,297.32800000000003 194.752,302.872 190.792,297.32800000000003 190.792,275.128" fill="#0d5a26" opacity="0.16"/>
<polygon points="229.248,269.584 233.208,275.128 233.208,297.32800000000003 229.248,302.872 225.28799999999998,297.32800000000003 225.28799999999998,275.128" fill="#27ff5e" opacity="1"/>
<polygon points="253.544,230.752 259.088,226.792 280.91200000000003,226.792 286.456,230.752 280.91200000000003,234.71200000000002 259.088,234.71200000000002" fill="#27ff5e" opacity="1"/>
<polygon points="253.544,268.0 259.088,264.04 280.91200000000003,264.04 286.456,268.0 280.91200000000003,271.96 259.088,271.96" fill="#27ff5e" opacity="1"/>
<polygon points="253.544,305.248 259.088,301.288 280.91200000000003,301.288 286.456,305.248 280.91200000000003,309.20799999999997 259.088,309.20799999999997" fill="#27ff5e" opacity="1"/>
<polygon points="252.752,233.128 256.712,238.672 256.712,260.872 252.752,266.416 248.792,260.872 248.792,238.672" fill="#27ff5e" opacity="1"/>
<polygon points="287.248,233.128 291.20799999999997,238.672 291.20799999999997,260.872 287.248,266.416 283.288,260.872 283.288,238.672" fill="#27ff5e" opacity="1"/>
<polygon points="252.752,269.584 256.712,275.128 256.712,297.32800000000003 252.752,302.872 248.792,297.32800000000003 248.792,275.128" fill="#27ff5e" opacity="1"/>
<polygon points="287.248,269.584 291.20799999999997,275.128 291.20799999999997,297.32800000000003 287.248,302.872 283.288,297.32800000000003 283.288,275.128" fill="#27ff5e" opacity="1"/></g>
<text x="210.0" y="332" font-family="Menlo, monospace" font-size="12" font-weight="800" fill="#2c6b40" text-anchor="middle" letter-spacing="3" opacity="1">WORK REMAINING</text>
<text x="40" y="376" font-family="Menlo, monospace" font-size="11" font-weight="800" fill="#28e6ff" text-anchor="start" letter-spacing="1" opacity="1">STAGE 3/8</text>
<rect x="136.0" y="366" width="20.8" height="12" rx="1" ry="1" fill="#27ff5e" opacity="1"/>
<rect x="160.8" y="366" width="20.8" height="12" rx="1" ry="1" fill="#27ff5e" opacity="1"/>
<rect x="185.6" y="366" width="20.8" height="12" rx="1" ry="1" fill="#27ff5e" opacity="1"/>
<rect x="210.4" y="366" width="20.8" height="12" rx="1" ry="1" fill="#0d5a26" opacity="0.4"/>
<rect x="235.2" y="366" width="20.8" height="12" rx="1" ry="1" fill="#0d5a26" opacity="0.4"/>
<rect x="260.0" y="366" width="20.8" height="12" rx="1" ry="1" fill="#0d5a26" opacity="0.4"/>
<rect x="284.8" y="366" width="20.8" height="12" rx="1" ry="1" fill="#0d5a26" opacity="0.4"/>
<rect x="309.6" y="366" width="20.8" height="12" rx="1" ry="1" fill="#0d5a26" opacity="0.4"/>
<rect x="334.4" y="366" width="20.8" height="12" rx="1" ry="1" fill="#0d5a26" opacity="0.4"/>
<rect x="359.20000000000005" y="366" width="20.8" height="12" rx="1" ry="1" fill="#0d5a26" opacity="0.4"/>
<circle cx="44.0" cy="398" r="4" fill="#27ff5e" opacity="1"/>
<circle cx="91.42857142857143" cy="398" r="4" fill="#27ff5e" opacity="1"/>
<circle cx="138.85714285714286" cy="398" r="4" fill="#ffd400" opacity="1"/>
<circle cx="186.28571428571428" cy="398" r="4" fill="#0d5a26" opacity="0.45"/>
<circle cx="233.71428571428572" cy="398" r="4" fill="#0d5a26" opacity="0.45"/>
<circle cx="281.14285714285717" cy="398" r="4" fill="#0d5a26" opacity="0.45"/>
<circle cx="328.57142857142856" cy="398" r="4" fill="#0d5a26" opacity="0.45"/>
<circle cx="376.0" cy="398" r="4" fill="#0d5a26" opacity="0.45"/>
<rect x="40.0" y="422" width="79.0" height="68" rx="4" ry="4" fill="#020c06" opacity="1" stroke="#ffd400" stroke-width="1.5"/>
<text x="79.5" y="440" font-family="Menlo, monospace" font-size="10" font-weight="800" fill="#ffd400" text-anchor="middle" letter-spacing="1" opacity="1">HR</text>
<text x="79.5" y="468" font-family="Menlo, monospace" font-size="22" font-weight="800" fill="#f2f2f2" text-anchor="middle" letter-spacing="0" opacity="1">142</text>
<rect x="127.0" y="422" width="79.0" height="68" rx="4" ry="4" fill="#020c06" opacity="1" stroke="#27ff5e" stroke-width="1.5"/>
<text x="166.5" y="440" font-family="Menlo, monospace" font-size="10" font-weight="800" fill="#27ff5e" text-anchor="middle" letter-spacing="1" opacity="1">DIST</text>
<text x="166.5" y="468" font-family="Menlo, monospace" font-size="22" font-weight="800" fill="#f2f2f2" text-anchor="middle" letter-spacing="0" opacity="1">2.15</text>
<rect x="214.0" y="422" width="79.0" height="68" rx="4" ry="4" fill="#020c06" opacity="1" stroke="#28e6ff" stroke-width="1.5"/>
<text x="253.5" y="440" font-family="Menlo, monospace" font-size="10" font-weight="800" fill="#28e6ff" text-anchor="middle" letter-spacing="1" opacity="1">PACE</text>
<text x="253.5" y="468" font-family="Menlo, monospace" font-size="22" font-weight="800" fill="#f2f2f2" text-anchor="middle" letter-spacing="0" opacity="1">5:42</text>
<rect x="301.0" y="422" width="79.0" height="68" rx="4" ry="4" fill="#020c06" opacity="1" stroke="#ff5cf0" stroke-width="1.5"/>
<text x="340.5" y="440" font-family="Menlo, monospace" font-size="10" font-weight="800" fill="#ff5cf0" text-anchor="middle" letter-spacing="1" opacity="1">SPM</text>
<text x="340.5" y="468" font-family="Menlo, monospace" font-size="22" font-weight="800" fill="#f2f2f2" text-anchor="middle" letter-spacing="0" opacity="1">168</text>
<rect x="10" y="562" width="400" height="132" rx="8" ry="8" fill="#202024" opacity="1"/>
<rect x="10" y="562" width="400" height="4" rx="8" ry="8" fill="#3a3a42" opacity="1"/>
<circle cx="70" cy="628.0" r="44" fill="#0a0a0c"/>
<circle cx="70.0" cy="594.0" r="3.4" fill="#27ff5e" opacity="1"/>
<circle cx="87.0" cy="598.555136271329" r="3.4" fill="#27ff5e" opacity="1"/>
<circle cx="99.44486372867092" cy="611.0" r="3.4" fill="#27ff5e" opacity="1"/>
<circle cx="104.0" cy="628.0" r="3.4" fill="#0d5a26" opacity="0.35"/>
<circle cx="99.44486372867092" cy="645.0" r="3.4" fill="#0d5a26" opacity="0.35"/>
<circle cx="87.0" cy="657.444863728671" r="3.4" fill="#0d5a26" opacity="0.35"/>
<circle cx="70.0" cy="662.0" r="3.4" fill="#0d5a26" opacity="0.35"/>
<circle cx="53.00000000000001" cy="657.444863728671" r="3.4" fill="#0d5a26" opacity="0.35"/>
<circle cx="40.55513627132908" cy="645.0" r="3.4" fill="#0d5a26" opacity="0.35"/>
<circle cx="36.0" cy="628.0" r="3.4" fill="#0d5a26" opacity="0.35"/>
<circle cx="40.55513627132909" cy="611.0" r="3.4" fill="#0d5a26" opacity="0.35"/>
<circle cx="52.999999999999986" cy="598.555136271329" r="3.4" fill="#0d5a26" opacity="0.35"/>
<rect x="67" y="626.0" width="6" height="20" fill="#111"/>
<circle cx="70" cy="622.0" r="11" fill="#ff3838"/>
<circle cx="67" cy="619.0" r="3.5" fill="#ff9090"/>
<circle cx="150.0" cy="632.0" r="22" fill="#050505"/>
<circle cx="150.0" cy="632.0" r="19" fill="#8a0d0d"/>
<circle cx="150.0" cy="632.0" r="16" fill="#ff3838"/>
<ellipse cx="146.0" cy="628.0" rx="6" ry="4" fill="#fff" opacity="0.35"/>
<text x="150.0" y="637.0" font-family="Menlo, monospace" font-size="15" font-weight="800" fill="#0a0a14" text-anchor="middle" letter-spacing="0" opacity="1">‖</text>
<circle cx="226.66666666666669" cy="628.0" r="22" fill="#050505"/>
<circle cx="226.66666666666669" cy="626.0" r="19" fill="#222"/>
<circle cx="226.66666666666669" cy="626.0" r="16" fill="#444"/>
<ellipse cx="222.66666666666669" cy="622.0" rx="6" ry="4" fill="#fff" opacity="0.35"/>
<text x="226.66666666666669" y="631.0" font-family="Menlo, monospace" font-size="15" font-weight="800" fill="#0a0a14" text-anchor="middle" letter-spacing="0" opacity="1">▶▶</text>
<circle cx="303.33333333333337" cy="628.0" r="22" fill="#050505"/>
<circle cx="303.33333333333337" cy="626.0" r="19" fill="#0c7a25"/>
<circle cx="303.33333333333337" cy="626.0" r="16" fill="#27c84a"/>
<ellipse cx="299.33333333333337" cy="622.0" rx="6" ry="4" fill="#fff" opacity="0.35"/>
<text x="303.33333333333337" y="631.0" font-family="Menlo, monospace" font-size="15" font-weight="800" fill="#0a0a14" text-anchor="middle" letter-spacing="0" opacity="1">■</text>
<circle cx="380.0" cy="628.0" r="22" fill="#050505"/>
<circle cx="380.0" cy="626.0" r="19" fill="#700"/>
<circle cx="380.0" cy="626.0" r="16" fill="#cc2222"/>
<ellipse cx="376.0" cy="622.0" rx="6" ry="4" fill="#fff" opacity="0.35"/>
<text x="380.0" y="631.0" font-family="Menlo, monospace" font-size="15" font-weight="800" fill="#0a0a14" text-anchor="middle" letter-spacing="0" opacity="1">✕</text>
<rect x="10" y="704" width="400" height="44" rx="6" ry="6" fill="#161618" opacity="1" stroke="#000" stroke-width="1"/>
<rect x="31" y="714" width="18" height="24" rx="2" ry="2" fill="#000" opacity="1"/>
<rect x="38" y="716" width="4" height="18" rx="1" ry="1" fill="#333" opacity="1"/>
<rect x="371" y="714" width="18" height="24" rx="2" ry="2" fill="#000" opacity="1"/>
<rect x="378" y="716" width="4" height="18" rx="1" ry="1" fill="#333" opacity="1"/>
<rect x="140.0" y="713" width="140" height="26" rx="4" ry="4" fill="#0a0a0c" opacity="1" stroke="#444" stroke-width="1"/>
<text x="210.0" y="731" font-family="Menlo, monospace" font-size="14" font-weight="800" fill="#ffd400" text-anchor="middle" letter-spacing="2" opacity="1">CREDIT  02</text>
</g>
</svg>