<svg xmlns="http://www.w3.org/2000/svg" width="770" height="770" viewBox="0 0 770 770">
<defs>
<linearGradient id="cab" x1="0" y1="0" x2="0.3" y2="1"><stop offset="0" stop-color="#211b2e"/><stop offset="1" stop-color="#0a0810"/></linearGradient>
<linearGradient id="tmold" x1="0" y1="0" x2="1" y2="1"><stop offset="0" stop-color="#21e6ff"/><stop offset="0.5" stop-color="#9d4bff"/><stop offset="1" stop-color="#ff2bd6"/></linearGradient>
<linearGradient id="title" x1="0" y1="0" x2="0" y2="1"><stop offset="0" stop-color="#21e6ff"/><stop offset="0.5" stop-color="#ffffff"/><stop offset="0.52" stop-color="#ff2bd6"/><stop offset="1" stop-color="#9d4bff"/></linearGradient>
<radialGradient id="marqglow" cx="0.5" cy="0.5" r="0.65"><stop offset="0" stop-color="#ffe24a" stop-opacity="0.9"/><stop offset="0.45" stop-color="#ff7a18" stop-opacity="0.45"/><stop offset="1" stop-color="#ffe24a" stop-opacity="0"/></radialGradient>
<linearGradient id="sun" x1="0" y1="0" x2="0" y2="1"><stop offset="0" stop-color="#ffd23f"/><stop offset="1" stop-color="#ff2d95"/></linearGradient>
<radialGradient id="barrel" cx="0.5" cy="0.5" r="0.75"><stop offset="0.55" stop-color="#000" stop-opacity="0"/><stop offset="1" stop-color="#000" stop-opacity="0.6"/></radialGradient>
<linearGradient id="chrome" x1="0" y1="0" x2="0" y2="1"><stop offset="0" stop-color="#cfd6e6"/><stop offset="0.5" stop-color="#4a4f63"/><stop offset="1" stop-color="#23262f"/></linearGradient>
<linearGradient id="panel" x1="0" y1="0" x2="0" y2="1"><stop offset="0" stop-color="#2a2440"/><stop offset="1" stop-color="#15101f"/></linearGradient>
<filter id="glowS" x="-60%" y="-60%" width="220%" height="220%"><feGaussianBlur stdDeviation="1.6" result="b"/><feMerge><feMergeNode in="b"/><feMergeNode in="SourceGraphic"/></feMerge></filter>
<filter id="glowM" x="-60%" y="-60%" width="220%" height="220%"><feGaussianBlur stdDeviation="3" result="b"/><feMerge><feMergeNode in="b"/><feMergeNode in="SourceGraphic"/></feMerge></filter>
<filter id="glowL" x="-60%" y="-60%" width="220%" height="220%"><feGaussianBlur stdDeviation="6" result="b"/><feMerge><feMergeNode in="b"/><feMergeNode in="SourceGraphic"/></feMerge></filter>
</defs>
<rect x="0" y="0" width="770" height="770" fill="#000"/>
<g transform="translate(175,0)">
<rect x="0" y="0" width="420" height="770" rx="0" ry="0" fill="url(#cab)" opacity="1"/>
<line x1="-770" y1="0" x2="0" y2="770" stroke="#9d4bff" stroke-width="0.5" opacity="0.05"/><line x1="-744" y1="0" x2="26" y2="770" stroke="#9d4bff" stroke-width="0.5" opacity="0.05"/><line x1="-718" y1="0" x2="52" y2="770" stroke="#9d4bff" stroke-width="0.5" opacity="0.05"/><line x1="-692" y1="0" x2="78" y2="770" stroke="#9d4bff" stroke-width="0.5" opacity="0.05"/><line x1="-666" y1="0" x2="104" y2="770" stroke="#9d4bff" stroke-width="0.5" opacity="0.05"/><line x1="-640" y1="0" x2="130" y2="770" stroke="#9d4bff" stroke-width="0.5" opacity="0.05"/><line x1="-614" y1="0" x2="156" y2="770" stroke="#9d4bff" stroke-width="0.5" opacity="0.05"/><line x1="-588" y1="0" x2="182" y2="770" stroke="#9d4bff" stroke-width="0.5" opacity="0.05"/><line x1="-562" y1="0" x2="208" y2="770" stroke="#9d4bff" stroke-width="0.5" opacity="0.05"/><line x1="-536" y1="0" x2="234" y2="770" stroke="#9d4bff" stroke-width="0.5" opacity="0.05"/><line x1="-510" y1="0" x2="260" y2="770" stroke="#9d4bff" stroke-width="0.5" opacity="0.05"/><line x1="-484" y1="0" x2="286" y2="770" stroke="#9d4bff" stroke-width="0.5" opacity="0.05"/><line x1="-458" y1="0" x2="312" y2="770" stroke="#9d4bff" stroke-width="0.5" opacity="0.05"/><line x1="-432" y1="0" x2="338" y2="770" stroke="#9d4bff" stroke-width="0.5" opacity="0.05"/><line x1="-406" y1="0" x2="364" y2="770" stroke="#9d4bff" stroke-width="0.5" opacity="0.05"/><line x1="-380" y1="0" x2="390" y2="770" stroke="#9d4bff" stroke-width="0.5" opacity="0.05"/><line x1="-354" y1="0" x2="416" y2="770" stroke="#9d4bff" stroke-width="0.5" opacity="0.05"/><line x1="-328" y1="0" x2="442" y2="770" stroke="#9d4bff" stroke-width="0.5" opacity="0.05"/><line x1="-302" y1="0" x2="468" y2="770" stroke="#9d4bff" stroke-width="0.5" opacity="0.05"/><line x1="-276" y1="0" x2="494" y2="770" stroke="#9d4bff" stroke-width="0.5" opacity="0.05"/><line x1="-250" y1="0" x2="520" y2="770" stroke="#9d4bff" stroke-width="0.5" opacity="0.05"/><line x1="-224" y1="0" x2="546" y2="770" stroke="#9d4bff" stroke-width="0.5" opacity="0.05"/><line x1="-198" y1="0" x2="572" y2="770" stroke="#9d4bff" stroke-width="0.5" opacity="0.05"/><line x1="-172" y1="0" x2="598" y2="770" stroke="#9d4bff" stroke-width="0.5" opacity="0.05"/><line x1="-146" y1="0" x2="624" y2="770" stroke="#9d4bff" stroke-width="0.5" opacity="0.05"/><line x1="-120" y1="0" x2="650" y2="770" stroke="#9d4bff" stroke-width="0.5" opacity="0.05"/><line x1="-94" y1="0" x2="676" y2="770" stroke="#9d4bff" stroke-width="0.5" opacity="0.05"/><line x1="-68" y1="0" x2="702" y2="770" stroke="#9d4bff" stroke-width="0.5" opacity="0.05"/><line x1="-42" y1="0" x2="728" y2="770" stroke="#9d4bff" stroke-width="0.5" opacity="0.05"/><line x1="-16" y1="0" x2="754" y2="770" stroke="#9d4bff" stroke-width="0.5" opacity="0.05"/><line x1="10" y1="0" x2="780" y2="770" stroke="#9d4bff" stroke-width="0.5" opacity="0.05"/><line x1="36" y1="0" x2="806" y2="770" stroke="#9d4bff" stroke-width="0.5" opacity="0.05"/><line x1="62" y1="0" x2="832" y2="770" stroke="#9d4bff" stroke-width="0.5" opacity="0.05"/><line x1="88" y1="0" x2="858" y2="770" stroke="#9d4bff" stroke-width="0.5" opacity="0.05"/><line x1="114" y1="0" x2="884" y2="770" stroke="#9d4bff" stroke-width="0.5" opacity="0.05"/><line x1="140" y1="0" x2="910" y2="770" stroke="#9d4bff" stroke-width="0.5" opacity="0.05"/><line x1="166" y1="0" x2="936" y2="770" stroke="#9d4bff" stroke-width="0.5" opacity="0.05"/><line x1="192" y1="0" x2="962" y2="770" stroke="#9d4bff" stroke-width="0.5" opacity="0.05"/><line x1="218" y1="0" x2="988" y2="770" stroke="#9d4bff" stroke-width="0.5" opacity="0.05"/><line x1="244" y1="0" x2="1014" y2="770" stroke="#9d4bff" stroke-width="0.5" opacity="0.05"/><line x1="270" y1="0" x2="1040" y2="770" stroke="#9d4bff" stroke-width="0.5" opacity="0.05"/><line x1="296" y1="0" x2="1066" y2="770" stroke="#9d4bff" stroke-width="0.5" opacity="0.05"/><line x1="322" y1="0" x2="1092" y2="770" stroke="#9d4bff" stroke-width="0.5" opacity="0.05"/><line x1="348" y1="0" x2="1118" y2="770" stroke="#9d4bff" stroke-width="0.5" opacity="0.05"/><line x1="374" y1="0" x2="1144" y2="770" stroke="#9d4bff" stroke-width="0.5" opacity="0.05"/><line x1="400" y1="0" x2="1170" y2="770" stroke="#9d4bff" stroke-width="0.5" opacity="0.05"/>
<rect x="0" y="0" width="420" height="770" fill="url(#barrel)" opacity="0.45"/>
<rect x="5" y="5" width="410" height="760" rx="14" ry="14" fill="none" opacity="1" stroke="url(#tmold)" stroke-width="3" filter="url(#glowM)"/>
<rect x="5" y="5" width="410" height="760" rx="14" ry="14" fill="none" opacity="1" stroke="url(#tmold)" stroke-width="1.4"/>
<rect x="14" y="16" width="392" height="92" rx="8" ry="8" fill="#0a0612" opacity="1" stroke="#ff2bd6" stroke-width="1.4" filter="url(#glowS)"/>
<line x1="210.0" y1="62.0" x2="450.0" y2="62.0" stroke="#ff2bd6" stroke-width="3" opacity="0.10"/><line x1="210.0" y1="62.0" x2="438.2535639108369" y2="80.54101966249684" stroke="#ff2bd6" stroke-width="3" opacity="0.10"/><line x1="210.0" y1="62.0" x2="404.1640786499874" y2="97.26711513754839" stroke="#ff2bd6" stroke-width="3" opacity="0.10"/><line x1="210.0" y1="62.0" x2="351.06846055019355" y2="110.54101966249685" stroke="#ff2bd6" stroke-width="3" opacity="0.10"/><line x1="210.0" y1="62.0" x2="284.1640786499874" y2="119.06339097770922" stroke="#ff2bd6" stroke-width="3" opacity="0.10"/><line x1="210.0" y1="62.0" x2="210.00000000000003" y2="122.0" stroke="#ff2bd6" stroke-width="3" opacity="0.10"/><line x1="210.0" y1="62.0" x2="135.83592135001265" y2="119.06339097770922" stroke="#ff2bd6" stroke-width="3" opacity="0.10"/><line x1="210.0" y1="62.0" x2="68.93153944980648" y2="110.54101966249685" stroke="#ff2bd6" stroke-width="3" opacity="0.10"/><line x1="210.0" y1="62.0" x2="15.835921350012626" y2="97.26711513754839" stroke="#ff2bd6" stroke-width="3" opacity="0.10"/><line x1="210.0" y1="62.0" x2="-18.253563910836846" y2="80.54101966249685" stroke="#ff2bd6" stroke-width="3" opacity="0.10"/><line x1="210.0" y1="62.0" x2="-30.0" y2="62.00000000000001" stroke="#ff2bd6" stroke-width="3" opacity="0.10"/><line x1="210.0" y1="62.0" x2="-18.253563910836874" y2="43.458980337503164" stroke="#ff2bd6" stroke-width="3" opacity="0.10"/><line x1="210.0" y1="62.0" x2="15.835921350012597" y2="26.73288486245162" stroke="#ff2bd6" stroke-width="3" opacity="0.10"/><line x1="210.0" y1="62.0" x2="68.93153944980642" y2="13.458980337503156" stroke="#ff2bd6" stroke-width="3" opacity="0.10"/><line x1="210.0" y1="62.0" x2="135.8359213500126" y2="4.936609022290789" stroke="#ff2bd6" stroke-width="3" opacity="0.10"/><line x1="210.0" y1="62.0" x2="209.99999999999994" y2="2.0" stroke="#ff2bd6" stroke-width="3" opacity="0.10"/><line x1="210.0" y1="62.0" x2="284.16407864998735" y2="4.9366090222907815" stroke="#ff2bd6" stroke-width="3" opacity="0.10"/><line x1="210.0" y1="62.0" x2="351.0684605501935" y2="13.45898033750315" stroke="#ff2bd6" stroke-width="3" opacity="0.10"/><line x1="210.0" y1="62.0" x2="404.16407864998735" y2="26.7328848624516" stroke="#ff2bd6" stroke-width="3" opacity="0.10"/><line x1="210.0" y1="62.0" x2="438.2535639108369" y2="43.458980337503135" stroke="#ff2bd6" stroke-width="3" opacity="0.10"/>
<ellipse cx="210.0" cy="62.0" rx="168.0" ry="30" fill="url(#marqglow)"/>
<text x="210.0" y="60.0" font-family="Menlo, monospace" font-size="24" font-weight="800" fill="url(#title)" text-anchor="middle" letter-spacing="2" opacity="1" filter="url(#glowS)">INTERVAL RUN</text>
<text x="210.0" y="95" font-family="Menlo, monospace" font-size="11" font-weight="700" fill="#21e6ff" text-anchor="middle" letter-spacing="3" opacity="1">&#9733;  PLAYER 1  &#9733;</text>
<rect x="14" y="122" width="392" height="430" rx="12" ry="12" fill="url(#chrome)" opacity="1"/>
<path d="M18,544 L18,128 L402,128" fill="none" stroke="#eef1f8" stroke-width="2" opacity="0.8"/>
<path d="M18,544 L402,544 L402,128" fill="none" stroke="#000" stroke-width="2.5" opacity="0.8"/>
<circle cx="26" cy="136" r="4.5" fill="#1a1d24"/>
<circle cx="25" cy="135" r="1.8" fill="#dfe4ee"/>
<circle cx="394" cy="136" r="4.5" fill="#1a1d24"/>
<circle cx="393" cy="135" r="1.8" fill="#dfe4ee"/>
<circle cx="26" cy="538" r="4.5" fill="#1a1d24"/>
<circle cx="25" cy="537" r="1.8" fill="#dfe4ee"/>
<circle cx="394" cy="538" r="4.5" fill="#1a1d24"/>
<circle cx="393" cy="537" r="1.8" fill="#dfe4ee"/>
<rect x="30" y="140" width="360" height="394" rx="8" ry="8" fill="#060316" opacity="1"/>
<rect x="30" y="140" width="360" height="394" rx="8" ry="8" fill="none" opacity="0.4" stroke="#21e6ff" stroke-width="1"/>
<clipPath id="glassclip"><rect x="30" y="140" width="360" height="394" rx="8"/></clipPath>
<g clip-path="url(#glassclip)" opacity="0.16">
<circle cx="210.0" cy="297.6" r="58" fill="url(#sun)"/>
<rect x="152.0" y="303.6" width="116" height="3" fill="#060316"/>
<rect x="152.0" y="310.6" width="116" height="4" fill="#060316"/>
<rect x="152.0" y="317.6" width="116" height="5" fill="#060316"/>
<rect x="152.0" y="324.6" width="116" height="6" fill="#060316"/>
<rect x="152.0" y="331.6" width="116" height="7" fill="#060316"/>
<line x1="30" y1="384.28" x2="390" y2="384.28" stroke="#ff2bd6" stroke-width="1"/>
<line x1="30" y1="386.67999999999995" x2="390" y2="386.67999999999995" stroke="#ff2bd6" stroke-width="1"/>
<line x1="30" y1="393.88" x2="390" y2="393.88" stroke="#ff2bd6" stroke-width="1"/>
<line x1="30" y1="405.88" x2="390" y2="405.88" stroke="#ff2bd6" stroke-width="1"/>
<line x1="30" y1="422.67999999999995" x2="390" y2="422.67999999999995" stroke="#ff2bd6" stroke-width="1"/>
<line x1="30" y1="444.28" x2="390" y2="444.28" stroke="#ff2bd6" stroke-width="1"/>
<line x1="30" y1="470.67999999999995" x2="390" y2="470.67999999999995" stroke="#ff2bd6" stroke-width="1"/>
<line x1="30" y1="501.88" x2="390" y2="501.88" stroke="#ff2bd6" stroke-width="1"/>
<line x1="210.0" y1="384.28" x2="-210.0" y2="534" stroke="#21e6ff" stroke-width="0.8"/>
<line x1="210.0" y1="384.28" x2="-140.0" y2="534" stroke="#21e6ff" stroke-width="0.8"/>
<line x1="210.0" y1="384.28" x2="-70.0" y2="534" stroke="#21e6ff" stroke-width="0.8"/>
<line x1="210.0" y1="384.28" x2="0.0" y2="534" stroke="#21e6ff" stroke-width="0.8"/>
<line x1="210.0" y1="384.28" x2="70.0" y2="534" stroke="#21e6ff" stroke-width="0.8"/>
<line x1="210.0" y1="384.28" x2="140.0" y2="534" stroke="#21e6ff" stroke-width="0.8"/>
<line x1="210.0" y1="384.28" x2="210.0" y2="534" stroke="#21e6ff" stroke-width="0.8"/>
<line x1="210.0" y1="384.28" x2="280.0" y2="534" stroke="#21e6ff" stroke-width="0.8"/>
<line x1="210.0" y1="384.28" x2="350.0" y2="534" stroke="#21e6ff" stroke-width="0.8"/>
<line x1="210.0" y1="384.28" x2="420.0" y2="534" stroke="#21e6ff" stroke-width="0.8"/>
<line x1="210.0" y1="384.28" x2="490.0" y2="534" stroke="#21e6ff" stroke-width="0.8"/>
<line x1="210.0" y1="384.28" x2="560.0" y2="534" stroke="#21e6ff" stroke-width="0.8"/>
<line x1="210.0" y1="384.28" x2="630.0" y2="534" stroke="#21e6ff" stroke-width="0.8"/>
</g>
<g clip-path="url(#glassclip)"><rect x="30" y="143" width="360" height="1.3" fill="#000" opacity="0.22"/><rect x="30" y="147" width="360" height="1.3" fill="#000" opacity="0.22"/><rect x="30" y="151" width="360" height="1.3" fill="#000" opacity="0.22"/><rect x="30" y="155" width="360" height="1.3" fill="#000" opacity="0.22"/><rect x="30" y="159" width="360" height="1.3" fill="#000" opacity="0.22"/><rect x="30" y="163" width="360" height="1.3" fill="#000" opacity="0.22"/><rect x="30" y="167" width="360" height="1.3" fill="#000" opacity="0.22"/><rect x="30" y="171" width="360" height="1.3" fill="#000" opacity="0.22"/><rect x="30" y="175" width="360" height="1.3" fill="#000" opacity="0.22"/><rect x="30" y="179" width="360" height="1.3" fill="#000" opacity="0.22"/><rect x="30" y="183" width="360" height="1.3" fill="#000" opacity="0.22"/><rect x="30" y="187" width="360" height="1.3" fill="#000" opacity="0.22"/><rect x="30" y="191" width="360" height="1.3" fill="#000" opacity="0.22"/><rect x="30" y="195" width="360" height="1.3" fill="#000" opacity="0.22"/><rect x="30" y="199" width="360" height="1.3" fill="#000" opacity="0.22"/><rect x="30" y="203" width="360" height="1.3" fill="#000" opacity="0.22"/><rect x="30" y="207" width="360" height="1.3" fill="#000" opacity="0.22"/><rect x="30" y="211" width="360" height="1.3" fill="#000" opacity="0.22"/><rect x="30" y="215" width="360" height="1.3" fill="#000" opacity="0.22"/><rect x="30" y="219" width="360" height="1.3" fill="#000" opacity="0.22"/><rect x="30" y="223" width="360" height="1.3" fill="#000" opacity="0.22"/><rect x="30" y="227" width="360" height="1.3" fill="#000" opacity="0.22"/><rect x="30" y="231" width="360" height="1.3" fill="#000" opacity="0.22"/><rect x="30" y="235" width="360" height="1.3" fill="#000" opacity="0.22"/><rect x="30" y="239" width="360" height="1.3" fill="#000" opacity="0.22"/><rect x="30" y="243" width="360" height="1.3" fill="#000" opacity="0.22"/><rect x="30" y="247" width="360" height="1.3" fill="#000" opacity="0.22"/><rect x="30" y="251" width="360" height="1.3" fill="#000" opacity="0.22"/><rect x="30" y="255" width="360" height="1.3" fill="#000" opacity="0.22"/><rect x="30" y="259" width="360" height="1.3" fill="#000" opacity="0.22"/><rect x="30" y="263" width="360" height="1.3" fill="#000" opacity="0.22"/><rect x="30" y="267" width="360" height="1.3" fill="#000" opacity="0.22"/><rect x="30" y="271" width="360" height="1.3" fill="#000" opacity="0.22"/><rect x="30" y="275" width="360" height="1.3" fill="#000" opacity="0.22"/><rect x="30" y="279" width="360" height="1.3" fill="#000" opacity="0.22"/><rect x="30" y="283" width="360" height="1.3" fill="#000" opacity="0.22"/><rect x="30" y="287" width="360" height="1.3" fill="#000" opacity="0.22"/><rect x="30" y="291" width="360" height="1.3" fill="#000" opacity="0.22"/><rect x="30" y="295" width="360" height="1.3" fill="#000" opacity="0.22"/><rect x="30" y="299" width="360" height="1.3" fill="#000" opacity="0.22"/><rect x="30" y="303" width="360" height="1.3" fill="#000" opacity="0.22"/><rect x="30" y="307" width="360" height="1.3" fill="#000" opacity="0.22"/><rect x="30" y="311" width="360" height="1.3" fill="#000" opacity="0.22"/><rect x="30" y="315" width="360" height="1.3" fill="#000" opacity="0.22"/><rect x="30" y="319" width="360" height="1.3" fill="#000" opacity="0.22"/><rect x="30" y="323" width="360" height="1.3" fill="#000" opacity="0.22"/><rect x="30" y="327" width="360" height="1.3" fill="#000" opacity="0.22"/><rect x="30" y="331" width="360" height="1.3" fill="#000" opacity="0.22"/><rect x="30" y="335" width="360" height="1.3" fill="#000" opacity="0.22"/><rect x="30" y="339" width="360" height="1.3" fill="#000" opacity="0.22"/><rect x="30" y="343" width="360" height="1.3" fill="#000" opacity="0.22"/><rect x="30" y="347" width="360" height="1.3" fill="#000" opacity="0.22"/><rect x="30" y="351" width="360" height="1.3" fill="#000" opacity="0.22"/><rect x="30" y="355" width="360" height="1.3" fill="#000" opacity="0.22"/><rect x="30" y="359" width="360" height="1.3" fill="#000" opacity="0.22"/><rect x="30" y="363" width="360" height="1.3" fill="#000" opacity="0.22"/><rect x="30" y="367" width="360" height="1.3" fill="#000" opacity="0.22"/><rect x="30" y="371" width="360" height="1.3" fill="#000" opacity="0.22"/><rect x="30" y="375" width="360" height="1.3" fill="#000" opacity="0.22"/><rect x="30" y="379" width="360" height="1.3" fill="#000" opacity="0.22"/><rect x="30" y="383" width="360" height="1.3" fill="#000" opacity="0.22"/><rect x="30" y="387" width="360" height="1.3" fill="#000" opacity="0.22"/><rect x="30" y="391" width="360" height="1.3" fill="#000" opacity="0.22"/><rect x="30" y="395" width="360" height="1.3" fill="#000" opacity="0.22"/><rect x="30" y="399" width="360" height="1.3" fill="#000" opacity="0.22"/><rect x="30" y="403" width="360" height="1.3" fill="#000" opacity="0.22"/><rect x="30" y="407" width="360" height="1.3" fill="#000" opacity="0.22"/><rect x="30" y="411" width="360" height="1.3" fill="#000" opacity="0.22"/><rect x="30" y="415" width="360" height="1.3" fill="#000" opacity="0.22"/><rect x="30" y="419" width="360" height="1.3" fill="#000" opacity="0.22"/><rect x="30" y="423" width="360" height="1.3" fill="#000" opacity="0.22"/><rect x="30" y="427" width="360" height="1.3" fill="#000" opacity="0.22"/><rect x="30" y="431" width="360" height="1.3" fill="#000" opacity="0.22"/><rect x="30" y="435" width="360" height="1.3" fill="#000" opacity="0.22"/><rect x="30" y="439" width="360" height="1.3" fill="#000" opacity="0.22"/><rect x="30" y="443" width="360" height="1.3" fill="#000" opacity="0.22"/><rect x="30" y="447" width="360" height="1.3" fill="#000" opacity="0.22"/><rect x="30" y="451" width="360" height="1.3" fill="#000" opacity="0.22"/><rect x="30" y="455" width="360" height="1.3" fill="#000" opacity="0.22"/><rect x="30" y="459" width="360" height="1.3" fill="#000" opacity="0.22"/><rect x="30" y="463" width="360" height="1.3" fill="#000" opacity="0.22"/><rect x="30" y="467" width="360" height="1.3" fill="#000" opacity="0.22"/><rect x="30" y="471" width="360" height="1.3" fill="#000" opacity="0.22"/><rect x="30" y="475" width="360" height="1.3" fill="#000" opacity="0.22"/><rect x="30" y="479" width="360" height="1.3" fill="#000" opacity="0.22"/><rect x="30" y="483" width="360" height="1.3" fill="#000" opacity="0.22"/><rect x="30" y="487" width="360" height="1.3" fill="#000" opacity="0.22"/><rect x="30" y="491" width="360" height="1.3" fill="#000" opacity="0.22"/><rect x="30" y="495" width="360" height="1.3" fill="#000" opacity="0.22"/><rect x="30" y="499" width="360" height="1.3" fill="#000" opacity="0.22"/><rect x="30" y="503" width="360" height="1.3" fill="#000" opacity="0.22"/><rect x="30" y="507" width="360" height="1.3" fill="#000" opacity="0.22"/><rect x="30" y="511" width="360" height="1.3" fill="#000" opacity="0.22"/><rect x="30" y="515" width="360" height="1.3" fill="#000" opacity="0.22"/><rect x="30" y="519" width="360" height="1.3" fill="#000" opacity="0.22"/><rect x="30" y="523" width="360" height="1.3" fill="#000" opacity="0.22"/><rect x="30" y="527" width="360" height="1.3" fill="#000" opacity="0.22"/><rect x="30" y="531" width="360" height="1.3" fill="#000" opacity="0.22"/></g>
<rect x="30" y="140" width="360" height="394" rx="8" ry="8" fill="url(#barrel)" opacity="0.65"/>
<text x="44" y="164" font-family="Menlo, monospace" font-size="11" font-weight="800" fill="#21e6ff" text-anchor="start" letter-spacing="1" opacity="1">1UP</text>
<text x="44" y="190" font-family="Menlo, monospace" font-size="26" font-weight="800" fill="#ffd400" filter="url(#glowS)">142</text>
<text x="104" y="190" font-family="Menlo, monospace" font-size="13" font-weight="700" fill="#ffd400" text-anchor="start" letter-spacing="0" opacity="1">&#9829; Z3</text>
<text x="376" y="164" font-family="Menlo, monospace" font-size="11" font-weight="800" fill="#ff2bd6" text-anchor="end" letter-spacing="1" opacity="1">HI-SCORE</text>
<text x="376" y="190" font-family="Menlo, monospace" font-size="26" font-weight="800" fill="#2bff67" text-anchor="end" filter="url(#glowS)">03280</text>
<text x="376" y="204" font-family="Menlo, monospace" font-size="9" font-weight="700" fill="#3a7a8f" text-anchor="end" letter-spacing="1" opacity="1">STEPS</text>
<g filter="url(#glowM)"><polygon points="69.544,234.752 75.088,230.792 96.912,230.792 102.456,234.752 96.912,238.71200000000002 75.088,238.71200000000002" fill="#2bff67" opacity="1"/>
<polygon points="69.544,272.0 75.088,268.04 96.912,268.04 102.456,272.0 96.912,275.96 75.088,275.96" fill="#0d5a26" opacity="0.14"/>
<polygon points="69.544,309.248 75.088,305.288 96.912,305.288 102.456,309.248 96.912,313.20799999999997 75.088,313.20799999999997" fill="#2bff67" opacity="1"/>
<polygon points="68.752,237.128 72.71199999999999,242.672 72.71199999999999,264.872 68.752,270.416 64.792,264.872 64.792,242.672" fill="#2bff67" opacity="1"/>
<polygon points="103.248,237.128 107.208,242.672 107.208,264.872 103.248,270.416 99.28800000000001,264.872 99.28800000000001,242.672" fill="#2bff67" opacity="1"/>
<polygon points="68.752,273.584 72.71199999999999,279.128 72.71199999999999,301.32800000000003 68.752,306.872 64.792,301.32800000000003 64.792,279.128" fill="#2bff67" opacity="1"/>
<polygon points="103.248,273.584 107.208,279.128 107.208,301.32800000000003 103.248,306.872 99.28800000000001,301.32800000000003 99.28800000000001,279.128" fill="#2bff67" opacity="1"/>
<polygon points="127.544,234.752 133.088,230.792 154.91199999999998,230.792 160.456,234.752 154.91199999999998,238.71200000000002 133.088,238.71200000000002" fill="#0d5a26" opacity="0.14"/>
<polygon points="127.544,272.0 133.088,268.04 154.91199999999998,268.04 160.456,272.0 154.91199999999998,275.96 133.088,275.96" fill="#0d5a26" opacity="0.14"/>
<polygon points="127.544,309.248 133.088,305.288 154.91199999999998,305.288 160.456,309.248 154.91199999999998,313.20799999999997 133.088,313.20799999999997" fill="#0d5a26" opacity="0.14"/>
<polygon points="126.752,237.128 130.712,242.672 130.712,264.872 126.752,270.416 122.792,264.872 122.792,242.672" fill="#0d5a26" opacity="0.14"/>
<polygon points="161.248,237.128 165.208,242.672 165.208,264.872 161.248,270.416 157.28799999999998,264.872 157.28799999999998,242.672" fill="#2bff67" opacity="1"/>
<polygon points="126.752,273.584 130.712,279.128 130.712,301.32800000000003 126.752,306.872 122.792,301.32800000000003 122.792,279.128" fill="#0d5a26" opacity="0.14"/>
<polygon points="161.248,273.584 165.208,279.128 165.208,301.32800000000003 161.248,306.872 157.28799999999998,301.32800000000003 157.28799999999998,279.128" fill="#2bff67" opacity="1"/>
<circle cx="187.0" cy="258.56" r="5.04" fill="#2bff67"/>
<circle cx="187.0" cy="285.44" r="5.04" fill="#2bff67"/>
<polygon points="199.544,234.752 205.08800000000002,230.792 226.91199999999998,230.792 232.456,234.752 226.91199999999998,238.71200000000002 205.08800000000002,238.71200000000002" fill="#0d5a26" opacity="0.14"/>
<polygon points="199.544,272.0 205.08800000000002,268.04 226.91199999999998,268.04 232.456,272.0 226.91199999999998,275.96 205.08800000000002,275.96" fill="#2bff67" opacity="1"/>
<polygon points="199.544,309.248 205.08800000000002,305.288 226.91199999999998,305.288 232.456,309.248 226.91199999999998,313.20799999999997 205.08800000000002,313.20799999999997" fill="#0d5a26" opacity="0.14"/>
<polygon points="198.752,237.128 202.71200000000002,242.672 202.71200000000002,264.872 198.752,270.416 194.792,264.872 194.792,242.672" fill="#2bff67" opacity="1"/>
<polygon points="233.248,237.128 237.208,242.672 237.208,264.872 233.248,270.416 229.28799999999998,264.872 229.28799999999998,242.672" fill="#2bff67" opacity="1"/>
<polygon points="198.752,273.584 202.71200000000002,279.128 202.71200000000002,301.32800000000003 198.752,306.872 194.792,301.32800000000003 194.792,279.128" fill="#0d5a26" opacity="0.14"/>
<polygon points="233.248,273.584 237.208,279.128 237.208,301.32800000000003 233.248,306.872 229.28799999999998,301.32800000000003 229.28799999999998,279.128" fill="#2bff67" opacity="1"/>
<polygon points="257.544,234.752 263.08799999999997,230.792 284.91200000000003,230.792 290.456,234.752 284.91200000000003,238.71200000000002 263.08799999999997,238.71200000000002" fill="#2bff67" opacity="1"/>
<polygon points="257.544,272.0 263.08799999999997,268.04 284.91200000000003,268.04 290.456,272.0 284.91200000000003,275.96 263.08799999999997,275.96" fill="#2bff67" opacity="1"/>
<polygon points="257.544,309.248 263.08799999999997,305.288 284.91200000000003,305.288 290.456,309.248 284.91200000000003,313.20799999999997 263.08799999999997,313.20799999999997" fill="#2bff67" opacity="1"/>
<polygon points="256.752,237.128 260.712,242.672 260.712,264.872 256.752,270.416 252.792,264.872 252.792,242.672" fill="#2bff67" opacity="1"/>
<polygon points="291.248,237.128 295.20799999999997,242.672 295.20799999999997,264.872 291.248,270.416 287.288,264.872 287.288,242.672" fill="#2bff67" opacity="1"/>
<polygon points="256.752,273.584 260.712,279.128 260.712,301.32800000000003 256.752,306.872 252.792,301.32800000000003 252.792,279.128" fill="#2bff67" opacity="1"/>
<polygon points="291.248,273.584 295.20799999999997,279.128 295.20799999999997,301.32800000000003 291.248,306.872 287.288,301.32800000000003 287.288,279.128" fill="#2bff67" opacity="1"/></g>
<text x="210.0" y="336" font-family="Menlo, monospace" font-size="12" font-weight="800" fill="#21e6ff" text-anchor="middle" letter-spacing="3" opacity="0.85">WORK REMAINING</text>
<text x="44" y="380" font-family="Menlo, monospace" font-size="11" font-weight="800" fill="#21e6ff" text-anchor="start" letter-spacing="1" opacity="1">STAGE 3/8</text>
<rect x="140.0" y="370" width="20.0" height="12" rx="2" ry="2" fill="#2bff67" opacity="1" filter="url(#glowS)"/>
<rect x="164.0" y="370" width="20.0" height="12" rx="2" ry="2" fill="#2bff67" opacity="1" filter="url(#glowS)"/>
<rect x="188.0" y="370" width="20.0" height="12" rx="2" ry="2" fill="#2bff67" opacity="1" filter="url(#glowS)"/>
<rect x="212.0" y="370" width="20.0" height="12" rx="2" ry="2" fill="#0d5a26" opacity="0.4"/>
<rect x="236.0" y="370" width="20.0" height="12" rx="2" ry="2" fill="#0d5a26" opacity="0.4"/>
<rect x="260.0" y="370" width="20.0" height="12" rx="2" ry="2" fill="#0d5a26" opacity="0.4"/>
<rect x="284.0" y="370" width="20.0" height="12" rx="2" ry="2" fill="#0d5a26" opacity="0.4"/>
<rect x="308.0" y="370" width="20.0" height="12" rx="2" ry="2" fill="#0d5a26" opacity="0.4"/>
<rect x="332.0" y="370" width="20.0" height="12" rx="2" ry="2" fill="#0d5a26" opacity="0.4"/>
<rect x="356.0" y="370" width="20.0" height="12" rx="2" ry="2" fill="#0d5a26" opacity="0.4"/>
<circle cx="48.0" cy="402" r="4" fill="#2bff67" opacity="1"/>
<circle cx="94.28571428571428" cy="402" r="4" fill="#2bff67" opacity="1"/>
<circle cx="140.57142857142856" cy="402" r="4" fill="#ffd400" opacity="1" filter="url(#glowS)"/>
<circle cx="186.85714285714286" cy="402" r="4" fill="#0d5a26" opacity="0.45"/>
<circle cx="233.14285714285714" cy="402" r="4" fill="#0d5a26" opacity="0.45"/>
<circle cx="279.42857142857144" cy="402" r="4" fill="#0d5a26" opacity="0.45"/>
<circle cx="325.7142857142857" cy="402" r="4" fill="#0d5a26" opacity="0.45"/>
<circle cx="372.0" cy="402" r="4" fill="#0d5a26" opacity="0.45"/>
<rect x="44.0" y="426" width="77.0" height="68" rx="5" ry="5" fill="#04030f" opacity="1" stroke="#ffd400" stroke-width="1.4" filter="url(#glowS)"/>
<rect x="46.0" y="428" width="73.0" height="27.200000000000003" rx="4" ry="4" fill="#ffffff" opacity="0.04"/>
<text x="82.5" y="444" font-family="Menlo, monospace" font-size="10" font-weight="800" fill="#ffd400" text-anchor="middle" letter-spacing="1" opacity="1">HR</text>
<text x="82.5" y="473" font-family="Menlo, monospace" font-size="22" font-weight="800" fill="#f4f4ff" text-anchor="middle" letter-spacing="0" opacity="1">142</text>
<rect x="129.0" y="426" width="77.0" height="68" rx="5" ry="5" fill="#04030f" opacity="1" stroke="#2bff67" stroke-width="1.4" filter="url(#glowS)"/>
<rect x="131.0" y="428" width="73.0" height="27.200000000000003" rx="4" ry="4" fill="#ffffff" opacity="0.04"/>
<text x="167.5" y="444" font-family="Menlo, monospace" font-size="10" font-weight="800" fill="#2bff67" text-anchor="middle" letter-spacing="1" opacity="1">DIST</text>
<text x="167.5" y="473" font-family="Menlo, monospace" font-size="22" font-weight="800" fill="#f4f4ff" text-anchor="middle" letter-spacing="0" opacity="1">2.15</text>
<rect x="214.0" y="426" width="77.0" height="68" rx="5" ry="5" fill="#04030f" opacity="1" stroke="#21e6ff" stroke-width="1.4" filter="url(#glowS)"/>
<rect x="216.0" y="428" width="73.0" height="27.200000000000003" rx="4" ry="4" fill="#ffffff" opacity="0.04"/>
<text x="252.5" y="444" font-family="Menlo, monospace" font-size="10" font-weight="800" fill="#21e6ff" text-anchor="middle" letter-spacing="1" opacity="1">PACE</text>
<text x="252.5" y="473" font-family="Menlo, monospace" font-size="22" font-weight="800" fill="#f4f4ff" text-anchor="middle" letter-spacing="0" opacity="1">5:42</text>
<rect x="299.0" y="426" width="77.0" height="68" rx="5" ry="5" fill="#04030f" opacity="1" stroke="#ff2bd6" stroke-width="1.4" filter="url(#glowS)"/>
<rect x="301.0" y="428" width="73.0" height="27.200000000000003" rx="4" ry="4" fill="#ffffff" opacity="0.04"/>
<text x="337.5" y="444" font-family="Menlo, monospace" font-size="10" font-weight="800" fill="#ff2bd6" text-anchor="middle" letter-spacing="1" opacity="1">SPM</text>
<text x="337.5" y="473" font-family="Menlo, monospace" font-size="22" font-weight="800" fill="#f4f4ff" text-anchor="middle" letter-spacing="0" opacity="1">168</text>
<rect x="14" y="566" width="392" height="132" rx="10" ry="10" fill="url(#panel)" opacity="1" stroke="#9d4bff" stroke-width="1.2" filter="url(#glowS)"/>
<rect x="14" y="566" width="392" height="4" rx="10" ry="10" fill="#4a4068" opacity="1"/>
<circle cx="70" cy="632.0" r="44" fill="#070510"/>
<circle cx="70" cy="632.0" r="44" fill="none" stroke="#9d4bff" stroke-width="1" opacity="0.5"/>
<circle cx="70.0" cy="598.0" r="3.6" fill="#2bff67" opacity="1" filter="url(#glowS)"/>
<circle cx="87.0" cy="602.555136271329" r="3.6" fill="#2bff67" opacity="1" filter="url(#glowS)"/>
<circle cx="99.44486372867092" cy="615.0" r="3.6" fill="#2bff67" opacity="1" filter="url(#glowS)"/>
<circle cx="104.0" cy="632.0" r="3.6" fill="#0d5a26" opacity="0.35"/>
<circle cx="99.44486372867092" cy="649.0" r="3.6" fill="#0d5a26" opacity="0.35"/>
<circle cx="87.0" cy="661.444863728671" r="3.6" fill="#0d5a26" opacity="0.35"/>
<circle cx="70.0" cy="666.0" r="3.6" fill="#0d5a26" opacity="0.35"/>
<circle cx="53.00000000000001" cy="661.444863728671" r="3.6" fill="#0d5a26" opacity="0.35"/>
<circle cx="40.55513627132908" cy="649.0" r="3.6" fill="#0d5a26" opacity="0.35"/>
<circle cx="36.0" cy="632.0" r="3.6" fill="#0d5a26" opacity="0.35"/>
<circle cx="40.55513627132909" cy="615.0" r="3.6" fill="#0d5a26" opacity="0.35"/>
<circle cx="52.999999999999986" cy="602.555136271329" r="3.6" fill="#0d5a26" opacity="0.35"/>
<rect x="67" y="630.0" width="6" height="20" fill="#0c0c12"/>
<circle cx="70" cy="626.0" r="11" fill="#ff3b53" filter="url(#glowS)"/>
<circle cx="67" cy="623.0" r="3.5" fill="#ffb0bc"/>
<circle cx="150.0" cy="632.0" r="23" fill="#040409"/>
<circle cx="150.0" cy="632.0" r="23" fill="none" stroke="#ff2bd6" stroke-width="1.3" opacity="0.7" filter="url(#glowS)"/>
<circle cx="150.0" cy="636.0" r="19" fill="#8a0d22"/>
<circle cx="150.0" cy="636.0" r="16" fill="#ff3b53"/>
<ellipse cx="146.0" cy="630.0" rx="7" ry="4.5" fill="#fff" opacity="0.4"/>
<text x="150.0" y="641.0" font-family="Menlo, monospace" font-size="15" font-weight="800" fill="#0a0a14" text-anchor="middle" letter-spacing="0" opacity="1">&#8214;</text>
<circle cx="226.0" cy="632.0" r="23" fill="#040409"/>
<circle cx="226.0" cy="632.0" r="23" fill="none" stroke="#21e6ff" stroke-width="1.3" opacity="0.7" filter="url(#glowS)"/>
<circle cx="226.0" cy="630.0" r="19" fill="#2a2733"/>
<circle cx="226.0" cy="630.0" r="16" fill="#5a5566"/>
<ellipse cx="222.0" cy="624.0" rx="7" ry="4.5" fill="#fff" opacity="0.4"/>
<text x="226.0" y="635.0" font-family="Menlo, monospace" font-size="15" font-weight="800" fill="#0a0a14" text-anchor="middle" letter-spacing="0" opacity="1">&#9654;&#9654;</text>
<circle cx="302.0" cy="632.0" r="23" fill="#040409"/>
<circle cx="302.0" cy="632.0" r="23" fill="none" stroke="#2bff67" stroke-width="1.3" opacity="0.7" filter="url(#glowS)"/>
<circle cx="302.0" cy="630.0" r="19" fill="#0c7a25"/>
<circle cx="302.0" cy="630.0" r="16" fill="#27c84a"/>
<ellipse cx="298.0" cy="624.0" rx="7" ry="4.5" fill="#fff" opacity="0.4"/>
<text x="302.0" y="635.0" font-family="Menlo, monospace" font-size="15" font-weight="800" fill="#0a0a14" text-anchor="middle" letter-spacing="0" opacity="1">&#9632;</text>
<circle cx="378.0" cy="632.0" r="23" fill="#040409"/>
<circle cx="378.0" cy="632.0" r="23" fill="none" stroke="#ff2bd6" stroke-width="1.3" opacity="0.7" filter="url(#glowS)"/>
<circle cx="378.0" cy="630.0" r="19" fill="#700818"/>
<circle cx="378.0" cy="630.0" r="16" fill="#cc2236"/>
<ellipse cx="374.0" cy="624.0" rx="7" ry="4.5" fill="#fff" opacity="0.4"/>
<text x="378.0" y="635.0" font-family="Menlo, monospace" font-size="15" font-weight="800" fill="#0a0a14" text-anchor="middle" letter-spacing="0" opacity="1">&#10005;</text>
<rect x="14" y="708" width="392" height="44" rx="8" ry="8" fill="url(#chrome)" opacity="1" stroke="#000" stroke-width="1"/>
<rect x="35" y="718" width="18" height="24" rx="2" ry="2" fill="#0a0a0e" opacity="1"/>
<rect x="42" y="720" width="4" height="18" rx="1" ry="1" fill="#3a3f4a" opacity="1"/>
<circle cx="44" cy="716" r="1.6" fill="#dfe4ee"/>
<rect x="367" y="718" width="18" height="24" rx="2" ry="2" fill="#0a0a0e" opacity="1"/>
<rect x="374" y="720" width="4" height="18" rx="1" ry="1" fill="#3a3f4a" opacity="1"/>
<circle cx="376" cy="716" r="1.6" fill="#dfe4ee"/>
<rect x="138.0" y="717" width="144" height="26" rx="5" ry="5" fill="#06040e" opacity="1" stroke="#ff2bd6" stroke-width="1" filter="url(#glowS)"/>
<text x="210.0" y="735" font-family="Menlo, monospace" font-size="14" font-weight="800" fill="#ffd400" text-anchor="middle" letter-spacing="2" opacity="1">CREDIT  02</text>
</g></svg>