<svg xmlns="http://www.w3.org/2000/svg" width="860" height="860" viewBox="0 0 860 860">
<defs>
<linearGradient id="body" x1="0.15" y1="0" x2="0.7" y2="1"><stop offset="0" stop-color="#8675cf"/><stop offset="0.5" stop-color="#574a9c"/><stop offset="1" stop-color="#3d3275"/></linearGradient>
<linearGradient id="bezel" x1="0" y1="0" x2="0" y2="1"><stop offset="0" stop-color="#2a2a32"/><stop offset="1" stop-color="#16161c"/></linearGradient>
<radialGradient id="glass" cx="0.32" cy="0.2" r="1.1"><stop offset="0" stop-color="#0c2230"/><stop offset="1" stop-color="#06121b"/></radialGradient>
<radialGradient id="vign" cx="0.5" cy="0.5" r="0.75"><stop offset="0.55" stop-color="#000" stop-opacity="0"/><stop offset="1" stop-color="#000" stop-opacity="0.55"/></radialGradient>
<linearGradient id="dpad" x1="0" y1="0" x2="0" y2="1"><stop offset="0" stop-color="#43434f"/><stop offset="0.18" stop-color="#26262e"/><stop offset="1" stop-color="#101015"/></linearGradient>
<radialGradient id="btn" cx="0.36" cy="0.3" r="0.85"><stop offset="0" stop-color="#ff4d8d"/><stop offset="0.7" stop-color="#c11d5e"/><stop offset="1" stop-color="#7a0f3a"/></radialGradient>
<linearGradient id="pill" x1="0" y1="0" x2="0" y2="1"><stop offset="0" stop-color="#3a3358"/><stop offset="1" stop-color="#241f3c"/></linearGradient>
<linearGradient id="bodysheen" x1="0" y1="0" x2="1" y2="0"><stop offset="0" stop-color="#ffffff" stop-opacity="0.16"/><stop offset="0.25" stop-color="#ffffff" stop-opacity="0"/></linearGradient>
<filter id="glowS" x="-60%" y="-60%" width="220%" height="220%"><feGaussianBlur stdDeviation="1.6" result="b"/><feMerge><feMergeNode in="b"/><feMergeNode in="SourceGraphic"/></feMerge></filter>
<filter id="glowM" x="-60%" y="-60%" width="220%" height="220%"><feGaussianBlur stdDeviation="3" result="b"/><feMerge><feMergeNode in="b"/><feMergeNode in="SourceGraphic"/></feMerge></filter>
<filter id="soft" x="-40%" y="-40%" width="180%" height="180%"><feDropShadow dx="0" dy="3" stdDeviation="4" flood-color="#000" flood-opacity="0.55"/></filter>
</defs>
<rect x="0" y="0" width="860" height="860" fill="#f0f1f7"/>
<g transform="translate(230,0)">
<rect x="0" y="0" width="400" height="860" rx="60" ry="60" fill="#0a0a0d" opacity="1"/>
<rect x="2" y="2" width="396" height="856" rx="58" ry="58" fill="none" opacity="1" stroke="#26262e" stroke-width="1.4"/>
<clipPath id="disp"><rect x="9" y="9" width="382" height="842" rx="50"/></clipPath>
<g clip-path="url(#disp)">
<rect x="9" y="9" width="382" height="842" fill="url(#body)"/>
<rect x="9" y="9" width="382" height="842" fill="url(#bodysheen)"/>
<rect x="9" y="9" width="382" height="842" fill="url(#vign)" opacity="0.5"/>
<circle cx="133" cy="136" r="0.7" fill="#fff" opacity="0.05"/><circle cx="258" cy="70" r="0.7" fill="#fff" opacity="0.05"/><circle cx="214" cy="317" r="0.7" fill="#fff" opacity="0.05"/><circle cx="31" cy="436" r="0.7" fill="#fff" opacity="0.05"/><circle cx="23" cy="374" r="0.7" fill="#fff" opacity="0.05"/><circle cx="36" cy="85" r="0.7" fill="#fff" opacity="0.05"/><circle cx="171" cy="705" r="0.7" fill="#fff" opacity="0.05"/><circle cx="56" cy="197" r="0.7" fill="#fff" opacity="0.05"/><circle cx="249" cy="807" r="0.7" fill="#fff" opacity="0.05"/><circle cx="229" cy="343" r="0.7" fill="#fff" opacity="0.05"/><circle cx="382" cy="48" r="0.7" fill="#fff" opacity="0.05"/><circle cx="337" cy="253" r="0.7" fill="#fff" opacity="0.05"/><circle cx="64" cy="108" r="0.7" fill="#fff" opacity="0.05"/><circle cx="127" cy="696" r="0.7" fill="#fff" opacity="0.05"/><circle cx="78" cy="499" r="0.7" fill="#fff" opacity="0.05"/><circle cx="253" cy="323" r="0.7" fill="#fff" opacity="0.05"/><circle cx="218" cy="62" r="0.7" fill="#fff" opacity="0.05"/><circle cx="32" cy="182" r="0.7" fill="#fff" opacity="0.05"/><circle cx="269" cy="369" r="0.7" fill="#fff" opacity="0.05"/><circle cx="129" cy="502" r="0.7" fill="#fff" opacity="0.05"/><circle cx="182" cy="261" r="0.7" fill="#fff" opacity="0.05"/><circle cx="312" cy="598" r="0.7" fill="#fff" opacity="0.05"/><circle cx="102" cy="493" r="0.7" fill="#fff" opacity="0.05"/><circle cx="210" cy="746" r="0.7" fill="#fff" opacity="0.05"/><circle cx="288" cy="251" r="0.7" fill="#fff" opacity="0.05"/><circle cx="383" cy="108" r="0.7" fill="#fff" opacity="0.05"/><circle cx="169" cy="647" r="0.7" fill="#fff" opacity="0.05"/><circle cx="67" cy="421" r="0.7" fill="#fff" opacity="0.05"/><circle cx="24" cy="572" r="0.7" fill="#fff" opacity="0.05"/><circle cx="301" cy="491" r="0.7" fill="#fff" opacity="0.05"/><circle cx="343" cy="273" r="0.7" fill="#fff" opacity="0.05"/><circle cx="275" cy="509" r="0.7" fill="#fff" opacity="0.05"/><circle cx="231" cy="393" r="0.7" fill="#fff" opacity="0.05"/><circle cx="330" cy="804" r="0.7" fill="#fff" opacity="0.05"/><circle cx="190" cy="568" r="0.7" fill="#fff" opacity="0.05"/><circle cx="32" cy="600" r="0.7" fill="#fff" opacity="0.05"/><circle cx="256" cy="845" r="0.7" fill="#fff" opacity="0.05"/><circle cx="323" cy="249" r="0.7" fill="#fff" opacity="0.05"/><circle cx="156" cy="572" r="0.7" fill="#fff" opacity="0.05"/><circle cx="18" cy="398" r="0.7" fill="#fff" opacity="0.05"/><circle cx="73" cy="108" r="0.7" fill="#fff" opacity="0.05"/><circle cx="32" cy="656" r="0.7" fill="#fff" opacity="0.05"/><circle cx="58" cy="217" r="0.7" fill="#fff" opacity="0.05"/><circle cx="158" cy="743" r="0.7" fill="#fff" opacity="0.05"/><circle cx="40" cy="387" r="0.7" fill="#fff" opacity="0.05"/><circle cx="219" cy="753" r="0.7" fill="#fff" opacity="0.05"/><circle cx="322" cy="736" r="0.7" fill="#fff" opacity="0.05"/><circle cx="115" cy="359" r="0.7" fill="#fff" opacity="0.05"/><circle cx="146" cy="753" r="0.7" fill="#fff" opacity="0.05"/><circle cx="375" cy="136" r="0.7" fill="#fff" opacity="0.05"/><circle cx="76" cy="204" r="0.7" fill="#fff" opacity="0.05"/><circle cx="98" cy="417" r="0.7" fill="#fff" opacity="0.05"/><circle cx="234" cy="230" r="0.7" fill="#fff" opacity="0.05"/><circle cx="11" cy="362" r="0.7" fill="#fff" opacity="0.05"/><circle cx="150" cy="486" r="0.7" fill="#fff" opacity="0.05"/><circle cx="373" cy="590" r="0.7" fill="#fff" opacity="0.05"/><circle cx="206" cy="529" r="0.7" fill="#fff" opacity="0.05"/><circle cx="267" cy="54" r="0.7" fill="#fff" opacity="0.05"/><circle cx="353" cy="666" r="0.7" fill="#fff" opacity="0.05"/><circle cx="343" cy="681" r="0.7" fill="#fff" opacity="0.05"/><circle cx="159" cy="345" r="0.7" fill="#fff" opacity="0.05"/><circle cx="49" cy="543" r="0.7" fill="#fff" opacity="0.05"/><circle cx="33" cy="66" r="0.7" fill="#fff" opacity="0.05"/><circle cx="89" cy="146" r="0.7" fill="#fff" opacity="0.05"/><circle cx="139" cy="53" r="0.7" fill="#fff" opacity="0.05"/><circle cx="9" cy="136" r="0.7" fill="#fff" opacity="0.05"/><circle cx="48" cy="315" r="0.7" fill="#fff" opacity="0.05"/><circle cx="19" cy="745" r="0.7" fill="#fff" opacity="0.05"/><circle cx="244" cy="134" r="0.7" fill="#fff" opacity="0.05"/><circle cx="105" cy="302" r="0.7" fill="#fff" opacity="0.05"/><circle cx="148" cy="112" r="0.7" fill="#fff" opacity="0.05"/><circle cx="333" cy="845" r="0.7" fill="#fff" opacity="0.05"/><circle cx="187" cy="416" r="0.7" fill="#fff" opacity="0.05"/><circle cx="42" cy="95" r="0.7" fill="#fff" opacity="0.05"/><circle cx="140" cy="232" r="0.7" fill="#fff" opacity="0.05"/><circle cx="326" cy="145" r="0.7" fill="#fff" opacity="0.05"/><circle cx="18" cy="810" r="0.7" fill="#fff" opacity="0.05"/><circle cx="211" cy="132" r="0.7" fill="#fff" opacity="0.05"/><circle cx="216" cy="32" r="0.7" fill="#fff" opacity="0.05"/><circle cx="211" cy="833" r="0.7" fill="#fff" opacity="0.05"/><circle cx="339" cy="595" r="0.7" fill="#fff" opacity="0.05"/><circle cx="109" cy="318" r="0.7" fill="#fff" opacity="0.05"/><circle cx="73" cy="659" r="0.7" fill="#fff" opacity="0.05"/><circle cx="212" cy="665" r="0.7" fill="#fff" opacity="0.05"/><circle cx="135" cy="197" r="0.7" fill="#fff" opacity="0.05"/><circle cx="319" cy="838" r="0.7" fill="#fff" opacity="0.05"/><circle cx="335" cy="688" r="0.7" fill="#fff" opacity="0.05"/><circle cx="322" cy="632" r="0.7" fill="#fff" opacity="0.05"/><circle cx="96" cy="445" r="0.7" fill="#fff" opacity="0.05"/><circle cx="145" cy="33" r="0.7" fill="#fff" opacity="0.05"/><circle cx="20" cy="244" r="0.7" fill="#fff" opacity="0.05"/><circle cx="108" cy="592" r="0.7" fill="#fff" opacity="0.05"/><circle cx="374" cy="386" r="0.7" fill="#fff" opacity="0.05"/><circle cx="367" cy="841" r="0.7" fill="#fff" opacity="0.05"/><circle cx="374" cy="316" r="0.7" fill="#fff" opacity="0.05"/><circle cx="93" cy="200" r="0.7" fill="#fff" opacity="0.05"/><circle cx="84" cy="181" r="0.7" fill="#fff" opacity="0.05"/><circle cx="247" cy="767" r="0.7" fill="#fff" opacity="0.05"/><circle cx="330" cy="413" r="0.7" fill="#fff" opacity="0.05"/><circle cx="258" cy="682" r="0.7" fill="#fff" opacity="0.05"/><circle cx="41" cy="565" r="0.7" fill="#fff" opacity="0.05"/><circle cx="357" cy="668" r="0.7" fill="#fff" opacity="0.05"/><circle cx="296" cy="412" r="0.7" fill="#fff" opacity="0.05"/><circle cx="77" cy="673" r="0.7" fill="#fff" opacity="0.05"/><circle cx="136" cy="683" r="0.7" fill="#fff" opacity="0.05"/><circle cx="380" cy="342" r="0.7" fill="#fff" opacity="0.05"/><circle cx="162" cy="806" r="0.7" fill="#fff" opacity="0.05"/><circle cx="286" cy="152" r="0.7" fill="#fff" opacity="0.05"/><circle cx="58" cy="136" r="0.7" fill="#fff" opacity="0.05"/><circle cx="355" cy="688" r="0.7" fill="#fff" opacity="0.05"/><circle cx="65" cy="705" r="0.7" fill="#fff" opacity="0.05"/><circle cx="383" cy="562" r="0.7" fill="#fff" opacity="0.05"/><circle cx="143" cy="471" r="0.7" fill="#fff" opacity="0.05"/><circle cx="59" cy="21" r="0.7" fill="#fff" opacity="0.05"/><circle cx="380" cy="556" r="0.7" fill="#fff" opacity="0.05"/><circle cx="210" cy="795" r="0.7" fill="#fff" opacity="0.05"/><circle cx="175" cy="743" r="0.7" fill="#fff" opacity="0.05"/><circle cx="325" cy="187" r="0.7" fill="#fff" opacity="0.05"/><circle cx="105" cy="256" r="0.7" fill="#fff" opacity="0.05"/><circle cx="101" cy="503" r="0.7" fill="#fff" opacity="0.05"/><circle cx="108" cy="362" r="0.7" fill="#fff" opacity="0.05"/><circle cx="59" cy="775" r="0.7" fill="#fff" opacity="0.05"/><circle cx="144" cy="395" r="0.7" fill="#fff" opacity="0.05"/><circle cx="232" cy="770" r="0.7" fill="#fff" opacity="0.05"/><circle cx="170" cy="782" r="0.7" fill="#fff" opacity="0.05"/><circle cx="201" cy="457" r="0.7" fill="#fff" opacity="0.05"/><circle cx="209" cy="25" r="0.7" fill="#fff" opacity="0.05"/><circle cx="177" cy="163" r="0.7" fill="#fff" opacity="0.05"/><circle cx="11" cy="682" r="0.7" fill="#fff" opacity="0.05"/><circle cx="75" cy="408" r="0.7" fill="#fff" opacity="0.05"/><circle cx="286" cy="478" r="0.7" fill="#fff" opacity="0.05"/><circle cx="134" cy="445" r="0.7" fill="#fff" opacity="0.05"/><circle cx="221" cy="669" r="0.7" fill="#fff" opacity="0.05"/><circle cx="50" cy="481" r="0.7" fill="#fff" opacity="0.05"/><circle cx="104" cy="242" r="0.7" fill="#fff" opacity="0.05"/><circle cx="304" cy="436" r="0.7" fill="#fff" opacity="0.05"/><circle cx="224" cy="649" r="0.7" fill="#fff" opacity="0.05"/><circle cx="358" cy="382" r="0.7" fill="#fff" opacity="0.05"/><circle cx="243" cy="435" r="0.7" fill="#fff" opacity="0.05"/><circle cx="205" cy="592" r="0.7" fill="#fff" opacity="0.05"/><circle cx="182" cy="458" r="0.7" fill="#fff" opacity="0.05"/><circle cx="192" cy="802" r="0.7" fill="#fff" opacity="0.05"/><circle cx="276" cy="747" r="0.7" fill="#fff" opacity="0.05"/><circle cx="369" cy="228" r="0.7" fill="#fff" opacity="0.05"/><circle cx="223" cy="803" r="0.7" fill="#fff" opacity="0.05"/><circle cx="330" cy="124" r="0.7" fill="#fff" opacity="0.05"/><circle cx="55" cy="381" r="0.7" fill="#fff" opacity="0.05"/><circle cx="37" cy="212" r="0.7" fill="#fff" opacity="0.05"/><circle cx="37" cy="573" r="0.7" fill="#fff" opacity="0.05"/><circle cx="308" cy="764" r="0.7" fill="#fff" opacity="0.05"/><circle cx="68" cy="612" r="0.7" fill="#fff" opacity="0.05"/><circle cx="261" cy="129" r="0.7" fill="#fff" opacity="0.05"/><circle cx="346" cy="824" r="0.7" fill="#fff" opacity="0.05"/><circle cx="93" cy="811" r="0.7" fill="#fff" opacity="0.05"/><circle cx="161" cy="419" r="0.7" fill="#fff" opacity="0.05"/><circle cx="387" cy="710" r="0.7" fill="#fff" opacity="0.05"/><circle cx="71" cy="372" r="0.7" fill="#fff" opacity="0.05"/><circle cx="206" cy="295" r="0.7" fill="#fff" opacity="0.05"/><circle cx="84" cy="277" r="0.7" fill="#fff" opacity="0.05"/><circle cx="285" cy="25" r="0.7" fill="#fff" opacity="0.05"/><circle cx="221" cy="380" r="0.7" fill="#fff" opacity="0.05"/><circle cx="16" cy="288" r="0.7" fill="#fff" opacity="0.05"/><circle cx="247" cy="440" r="0.7" fill="#fff" opacity="0.05"/><circle cx="34" cy="838" r="0.7" fill="#fff" opacity="0.05"/><circle cx="310" cy="827" r="0.7" fill="#fff" opacity="0.05"/><circle cx="49" cy="233" r="0.7" fill="#fff" opacity="0.05"/><circle cx="24" cy="665" r="0.7" fill="#fff" opacity="0.05"/><circle cx="112" cy="118" r="0.7" fill="#fff" opacity="0.05"/><circle cx="170" cy="776" r="0.7" fill="#fff" opacity="0.05"/><circle cx="322" cy="227" r="0.7" fill="#fff" opacity="0.05"/><circle cx="66" cy="783" r="0.7" fill="#fff" opacity="0.05"/><circle cx="227" cy="599" r="0.7" fill="#fff" opacity="0.05"/><circle cx="43" cy="57" r="0.7" fill="#fff" opacity="0.05"/><circle cx="272" cy="367" r="0.7" fill="#fff" opacity="0.05"/><circle cx="37" cy="799" r="0.7" fill="#fff" opacity="0.05"/><circle cx="251" cy="684" r="0.7" fill="#fff" opacity="0.05"/><circle cx="41" cy="730" r="0.7" fill="#fff" opacity="0.05"/><circle cx="34" cy="735" r="0.7" fill="#fff" opacity="0.05"/><circle cx="182" cy="295" r="0.7" fill="#fff" opacity="0.05"/><circle cx="220" cy="789" r="0.7" fill="#fff" opacity="0.05"/><circle cx="111" cy="118" r="0.7" fill="#fff" opacity="0.05"/><circle cx="210" cy="210" r="0.7" fill="#fff" opacity="0.05"/><circle cx="51" cy="145" r="0.7" fill="#fff" opacity="0.05"/><circle cx="28" cy="179" r="0.7" fill="#fff" opacity="0.05"/><circle cx="128" cy="266" r="0.7" fill="#fff" opacity="0.05"/><circle cx="299" cy="253" r="0.7" fill="#fff" opacity="0.05"/><circle cx="200" cy="159" r="0.7" fill="#fff" opacity="0.05"/><circle cx="142" cy="24" r="0.7" fill="#fff" opacity="0.05"/><circle cx="105" cy="22" r="0.7" fill="#fff" opacity="0.05"/><circle cx="289" cy="473" r="0.7" fill="#fff" opacity="0.05"/><circle cx="81" cy="409" r="0.7" fill="#fff" opacity="0.05"/><circle cx="366" cy="98" r="0.7" fill="#fff" opacity="0.05"/><circle cx="322" cy="373" r="0.7" fill="#fff" opacity="0.05"/><circle cx="198" cy="712" r="0.7" fill="#fff" opacity="0.05"/><circle cx="159" cy="436" r="0.7" fill="#fff" opacity="0.05"/><circle cx="272" cy="836" r="0.7" fill="#fff" opacity="0.05"/><circle cx="140" cy="710" r="0.7" fill="#fff" opacity="0.05"/><circle cx="279" cy="544" r="0.7" fill="#fff" opacity="0.05"/><circle cx="164" cy="302" r="0.7" fill="#fff" opacity="0.05"/><circle cx="30" cy="118" r="0.7" fill="#fff" opacity="0.05"/><circle cx="36" cy="633" r="0.7" fill="#fff" opacity="0.05"/><circle cx="107" cy="146" r="0.7" fill="#fff" opacity="0.05"/><circle cx="41" cy="717" r="0.7" fill="#fff" opacity="0.05"/><circle cx="342" cy="574" r="0.7" fill="#fff" opacity="0.05"/><circle cx="117" cy="213" r="0.7" fill="#fff" opacity="0.05"/><circle cx="121" cy="396" r="0.7" fill="#fff" opacity="0.05"/><circle cx="69" cy="384" r="0.7" fill="#fff" opacity="0.05"/><circle cx="110" cy="819" r="0.7" fill="#fff" opacity="0.05"/><circle cx="381" cy="470" r="0.7" fill="#fff" opacity="0.05"/><circle cx="102" cy="822" r="0.7" fill="#fff" opacity="0.05"/><circle cx="127" cy="309" r="0.7" fill="#fff" opacity="0.05"/><circle cx="9" cy="330" r="0.7" fill="#fff" opacity="0.05"/><circle cx="190" cy="432" r="0.7" fill="#fff" opacity="0.05"/><circle cx="86" cy="434" r="0.7" fill="#fff" opacity="0.05"/><circle cx="11" cy="231" r="0.7" fill="#fff" opacity="0.05"/><circle cx="43" cy="345" r="0.7" fill="#fff" opacity="0.05"/><circle cx="25" cy="28" r="0.7" fill="#fff" opacity="0.05"/><circle cx="125" cy="205" r="0.7" fill="#fff" opacity="0.05"/><circle cx="233" cy="455" r="0.7" fill="#fff" opacity="0.05"/><circle cx="296" cy="563" r="0.7" fill="#fff" opacity="0.05"/>
<rect x="154.0" y="19" width="92" height="26" rx="13" ry="13" fill="#000" opacity="1"/>
<circle cx="230.0" cy="32" r="4" fill="#0c1418"/>
<rect x="31" y="59" width="338" height="412" rx="18" ry="18" fill="url(#bezel)" opacity="1" stroke="#000" stroke-width="1" filter="url(#soft)"/>
<text x="45" y="81" font-family="Menlo, monospace" font-size="9" font-weight="700" fill="#ff3b53" text-anchor="start" letter-spacing="1" opacity="1">&#9679; POWER</text>
<circle cx="48" cy="77.5" r="3.2" fill="#ff3b53" filter="url(#glowS)"/>
<text x="355" y="81" font-family="Menlo, monospace" font-size="8" font-weight="700" fill="#6b6b78" text-anchor="end" letter-spacing="1.5" opacity="1">DOT-MATRIX HR</text>
<rect x="47" y="93" width="306" height="362" rx="8" ry="8" fill="url(#glass)" opacity="1"/>
<rect x="47" y="93" width="306" height="362" rx="8" ry="8" fill="none" opacity="0.25" stroke="#21e6ff" stroke-width="1"/>
<clipPath id="gclip"><rect x="47" y="93" width="306" height="362" rx="8"/></clipPath>
<g clip-path="url(#gclip)"><rect x="47" y="96" width="306" height="1.2" fill="#000" opacity="0.18"/><rect x="47" y="100" width="306" height="1.2" fill="#000" opacity="0.18"/><rect x="47" y="104" width="306" height="1.2" fill="#000" opacity="0.18"/><rect x="47" y="108" width="306" height="1.2" fill="#000" opacity="0.18"/><rect x="47" y="112" width="306" height="1.2" fill="#000" opacity="0.18"/><rect x="47" y="116" width="306" height="1.2" fill="#000" opacity="0.18"/><rect x="47" y="120" width="306" height="1.2" fill="#000" opacity="0.18"/><rect x="47" y="124" width="306" height="1.2" fill="#000" opacity="0.18"/><rect x="47" y="128" width="306" height="1.2" fill="#000" opacity="0.18"/><rect x="47" y="132" width="306" height="1.2" fill="#000" opacity="0.18"/><rect x="47" y="136" width="306" height="1.2" fill="#000" opacity="0.18"/><rect x="47" y="140" width="306" height="1.2" fill="#000" opacity="0.18"/><rect x="47" y="144" width="306" height="1.2" fill="#000" opacity="0.18"/><rect x="47" y="148" width="306" height="1.2" fill="#000" opacity="0.18"/><rect x="47" y="152" width="306" height="1.2" fill="#000" opacity="0.18"/><rect x="47" y="156" width="306" height="1.2" fill="#000" opacity="0.18"/><rect x="47" y="160" width="306" height="1.2" fill="#000" opacity="0.18"/><rect x="47" y="164" width="306" height="1.2" fill="#000" opacity="0.18"/><rect x="47" y="168" width="306" height="1.2" fill="#000" opacity="0.18"/><rect x="47" y="172" width="306" height="1.2" fill="#000" opacity="0.18"/><rect x="47" y="176" width="306" height="1.2" fill="#000" opacity="0.18"/><rect x="47" y="180" width="306" height="1.2" fill="#000" opacity="0.18"/><rect x="47" y="184" width="306" height="1.2" fill="#000" opacity="0.18"/><rect x="47" y="188" width="306" height="1.2" fill="#000" opacity="0.18"/><rect x="47" y="192" width="306" height="1.2" fill="#000" opacity="0.18"/><rect x="47" y="196" width="306" height="1.2" fill="#000" opacity="0.18"/><rect x="47" y="200" width="306" height="1.2" fill="#000" opacity="0.18"/><rect x="47" y="204" width="306" height="1.2" fill="#000" opacity="0.18"/><rect x="47" y="208" width="306" height="1.2" fill="#000" opacity="0.18"/><rect x="47" y="212" width="306" height="1.2" fill="#000" opacity="0.18"/><rect x="47" y="216" width="306" height="1.2" fill="#000" opacity="0.18"/><rect x="47" y="220" width="306" height="1.2" fill="#000" opacity="0.18"/><rect x="47" y="224" width="306" height="1.2" fill="#000" opacity="0.18"/><rect x="47" y="228" width="306" height="1.2" fill="#000" opacity="0.18"/><rect x="47" y="232" width="306" height="1.2" fill="#000" opacity="0.18"/><rect x="47" y="236" width="306" height="1.2" fill="#000" opacity="0.18"/><rect x="47" y="240" width="306" height="1.2" fill="#000" opacity="0.18"/><rect x="47" y="244" width="306" height="1.2" fill="#000" opacity="0.18"/><rect x="47" y="248" width="306" height="1.2" fill="#000" opacity="0.18"/><rect x="47" y="252" width="306" height="1.2" fill="#000" opacity="0.18"/><rect x="47" y="256" width="306" height="1.2" fill="#000" opacity="0.18"/><rect x="47" y="260" width="306" height="1.2" fill="#000" opacity="0.18"/><rect x="47" y="264" width="306" height="1.2" fill="#000" opacity="0.18"/><rect x="47" y="268" width="306" height="1.2" fill="#000" opacity="0.18"/><rect x="47" y="272" width="306" height="1.2" fill="#000" opacity="0.18"/><rect x="47" y="276" width="306" height="1.2" fill="#000" opacity="0.18"/><rect x="47" y="280" width="306" height="1.2" fill="#000" opacity="0.18"/><rect x="47" y="284" width="306" height="1.2" fill="#000" opacity="0.18"/><rect x="47" y="288" width="306" height="1.2" fill="#000" opacity="0.18"/><rect x="47" y="292" width="306" height="1.2" fill="#000" opacity="0.18"/><rect x="47" y="296" width="306" height="1.2" fill="#000" opacity="0.18"/><rect x="47" y="300" width="306" height="1.2" fill="#000" opacity="0.18"/><rect x="47" y="304" width="306" height="1.2" fill="#000" opacity="0.18"/><rect x="47" y="308" width="306" height="1.2" fill="#000" opacity="0.18"/><rect x="47" y="312" width="306" height="1.2" fill="#000" opacity="0.18"/><rect x="47" y="316" width="306" height="1.2" fill="#000" opacity="0.18"/><rect x="47" y="320" width="306" height="1.2" fill="#000" opacity="0.18"/><rect x="47" y="324" width="306" height="1.2" fill="#000" opacity="0.18"/><rect x="47" y="328" width="306" height="1.2" fill="#000" opacity="0.18"/><rect x="47" y="332" width="306" height="1.2" fill="#000" opacity="0.18"/><rect x="47" y="336" width="306" height="1.2" fill="#000" opacity="0.18"/><rect x="47" y="340" width="306" height="1.2" fill="#000" opacity="0.18"/><rect x="47" y="344" width="306" height="1.2" fill="#000" opacity="0.18"/><rect x="47" y="348" width="306" height="1.2" fill="#000" opacity="0.18"/><rect x="47" y="352" width="306" height="1.2" fill="#000" opacity="0.18"/><rect x="47" y="356" width="306" height="1.2" fill="#000" opacity="0.18"/><rect x="47" y="360" width="306" height="1.2" fill="#000" opacity="0.18"/><rect x="47" y="364" width="306" height="1.2" fill="#000" opacity="0.18"/><rect x="47" y="368" width="306" height="1.2" fill="#000" opacity="0.18"/><rect x="47" y="372" width="306" height="1.2" fill="#000" opacity="0.18"/><rect x="47" y="376" width="306" height="1.2" fill="#000" opacity="0.18"/><rect x="47" y="380" width="306" height="1.2" fill="#000" opacity="0.18"/><rect x="47" y="384" width="306" height="1.2" fill="#000" opacity="0.18"/><rect x="47" y="388" width="306" height="1.2" fill="#000" opacity="0.18"/><rect x="47" y="392" width="306" height="1.2" fill="#000" opacity="0.18"/><rect x="47" y="396" width="306" height="1.2" fill="#000" opacity="0.18"/><rect x="47" y="400" width="306" height="1.2" fill="#000" opacity="0.18"/><rect x="47" y="404" width="306" height="1.2" fill="#000" opacity="0.18"/><rect x="47" y="408" width="306" height="1.2" fill="#000" opacity="0.18"/><rect x="47" y="412" width="306" height="1.2" fill="#000" opacity="0.18"/><rect x="47" y="416" width="306" height="1.2" fill="#000" opacity="0.18"/><rect x="47" y="420" width="306" height="1.2" fill="#000" opacity="0.18"/><rect x="47" y="424" width="306" height="1.2" fill="#000" opacity="0.18"/><rect x="47" y="428" width="306" height="1.2" fill="#000" opacity="0.18"/><rect x="47" y="432" width="306" height="1.2" fill="#000" opacity="0.18"/><rect x="47" y="436" width="306" height="1.2" fill="#000" opacity="0.18"/><rect x="47" y="440" width="306" height="1.2" fill="#000" opacity="0.18"/><rect x="47" y="444" width="306" height="1.2" fill="#000" opacity="0.18"/><rect x="47" y="448" width="306" height="1.2" fill="#000" opacity="0.18"/><rect x="47" y="452" width="306" height="1.2" fill="#000" opacity="0.18"/></g>
<text x="61" y="119" font-family="Menlo, monospace" font-size="11" font-weight="800" fill="#21e6ff" text-anchor="start" letter-spacing="1" opacity="1">1UP</text>
<text x="61" y="145" font-family="Menlo, monospace" font-size="26" font-weight="800" fill="#ffd400" filter="url(#glowS)">142</text>
<text x="121" y="145" font-family="Menlo, monospace" font-size="13" font-weight="700" fill="#ffd400" text-anchor="start" letter-spacing="0" opacity="1">&#9829; Z3</text>
<text x="339" y="119" font-family="Menlo, monospace" font-size="11" font-weight="800" fill="#ff2bd6" text-anchor="end" letter-spacing="1" opacity="1">HI-SCORE</text>
<text x="339" y="145" font-family="Menlo, monospace" font-size="26" font-weight="800" fill="#2bff67" text-anchor="end" filter="url(#glowS)">03280</text>
<text x="339" y="159" font-family="Menlo, monospace" font-size="8" font-weight="700" fill="#3a7a8f" text-anchor="end" letter-spacing="1" opacity="1">STEPS</text>
<g filter="url(#glowM)"><polygon points="82.292,185.536 87.584,181.756 108.416,181.756 113.708,185.536 108.416,189.316 87.584,189.316" fill="#2bff67" opacity="1"/>
<polygon points="82.292,218.0 87.584,214.22 108.416,214.22 113.708,218.0 108.416,221.78 87.584,221.78" fill="#0d5a26" opacity="0.13"/>
<polygon points="82.292,250.464 87.584,246.684 108.416,246.684 113.708,250.464 108.416,254.244 87.584,254.244" fill="#2bff67" opacity="1"/>
<polygon points="81.536,187.804 85.316,193.096 85.316,211.196 81.536,216.488 77.756,211.196 77.756,193.096" fill="#2bff67" opacity="1"/>
<polygon points="114.464,187.804 118.244,193.096 118.244,211.196 114.464,216.488 110.684,211.196 110.684,193.096" fill="#2bff67" opacity="1"/>
<polygon points="81.536,219.512 85.316,224.804 85.316,242.904 81.536,248.196 77.756,242.904 77.756,224.804" fill="#2bff67" opacity="1"/>
<polygon points="114.464,219.512 118.244,224.804 118.244,242.904 114.464,248.196 110.684,242.904 110.684,224.804" fill="#2bff67" opacity="1"/>
<polygon points="137.292,185.536 142.584,181.756 163.416,181.756 168.708,185.536 163.416,189.316 142.584,189.316" fill="#0d5a26" opacity="0.13"/>
<polygon points="137.292,218.0 142.584,214.22 163.416,214.22 168.708,218.0 163.416,221.78 142.584,221.78" fill="#0d5a26" opacity="0.13"/>
<polygon points="137.292,250.464 142.584,246.684 163.416,246.684 168.708,250.464 163.416,254.244 142.584,254.244" fill="#0d5a26" opacity="0.13"/>
<polygon points="136.536,187.804 140.316,193.096 140.316,211.196 136.536,216.488 132.756,211.196 132.756,193.096" fill="#0d5a26" opacity="0.13"/>
<polygon points="169.464,187.804 173.244,193.096 173.244,211.196 169.464,216.488 165.684,211.196 165.684,193.096" fill="#2bff67" opacity="1"/>
<polygon points="136.536,219.512 140.316,224.804 140.316,242.904 136.536,248.196 132.756,242.904 132.756,224.804" fill="#0d5a26" opacity="0.13"/>
<polygon points="169.464,219.512 173.244,224.804 173.244,242.904 169.464,248.196 165.684,242.904 165.684,224.804" fill="#2bff67" opacity="1"/>
<circle cx="193.5" cy="206.16" r="4.4399999999999995" fill="#2bff67"/>
<circle cx="193.5" cy="229.84" r="4.4399999999999995" fill="#2bff67"/>
<polygon points="205.292,185.536 210.584,181.756 231.416,181.756 236.708,185.536 231.416,189.316 210.584,189.316" fill="#0d5a26" opacity="0.13"/>
<polygon points="205.292,218.0 210.584,214.22 231.416,214.22 236.708,218.0 231.416,221.78 210.584,221.78" fill="#2bff67" opacity="1"/>
<polygon points="205.292,250.464 210.584,246.684 231.416,246.684 236.708,250.464 231.416,254.244 210.584,254.244" fill="#0d5a26" opacity="0.13"/>
<polygon points="204.536,187.804 208.316,193.096 208.316,211.196 204.536,216.488 200.756,211.196 200.756,193.096" fill="#2bff67" opacity="1"/>
<polygon points="237.464,187.804 241.244,193.096 241.244,211.196 237.464,216.488 233.684,211.196 233.684,193.096" fill="#2bff67" opacity="1"/>
<polygon points="204.536,219.512 208.316,224.804 208.316,242.904 204.536,248.196 200.756,242.904 200.756,224.804" fill="#0d5a26" opacity="0.13"/>
<polygon points="237.464,219.512 241.244,224.804 241.244,242.904 237.464,248.196 233.684,242.904 233.684,224.804" fill="#2bff67" opacity="1"/>
<polygon points="260.292,185.536 265.58399999999995,181.756 286.41600000000005,181.756 291.708,185.536 286.41600000000005,189.316 265.58399999999995,189.316" fill="#2bff67" opacity="1"/>
<polygon points="260.292,218.0 265.58399999999995,214.22 286.41600000000005,214.22 291.708,218.0 286.41600000000005,221.78 265.58399999999995,221.78" fill="#2bff67" opacity="1"/>
<polygon points="260.292,250.464 265.58399999999995,246.684 286.41600000000005,246.684 291.708,250.464 286.41600000000005,254.244 265.58399999999995,254.244" fill="#2bff67" opacity="1"/>
<polygon points="259.536,187.804 263.316,193.096 263.316,211.196 259.536,216.488 255.756,211.196 255.756,193.096" fill="#2bff67" opacity="1"/>
<polygon points="292.464,187.804 296.24399999999997,193.096 296.24399999999997,211.196 292.464,216.488 288.684,211.196 288.684,193.096" fill="#2bff67" opacity="1"/>
<polygon points="259.536,219.512 263.316,224.804 263.316,242.904 259.536,248.196 255.756,242.904 255.756,224.804" fill="#2bff67" opacity="1"/>
<polygon points="292.464,219.512 296.24399999999997,224.804 296.24399999999997,242.904 292.464,248.196 288.684,242.904 288.684,224.804" fill="#2bff67" opacity="1"/></g>
<text x="200.0" y="275" font-family="Menlo, monospace" font-size="11" font-weight="800" fill="#21e6ff" text-anchor="middle" letter-spacing="3" opacity="0.85">WORK REMAINING</text>
<text x="61" y="310" font-family="Menlo, monospace" font-size="10" font-weight="800" fill="#21e6ff" text-anchor="start" letter-spacing="1" opacity="1">STAGE 3/8</text>
<rect x="149.0" y="300" width="15.4" height="11" rx="2" ry="2" fill="#2bff67" opacity="1" filter="url(#glowS)"/>
<rect x="168.4" y="300" width="15.4" height="11" rx="2" ry="2" fill="#2bff67" opacity="1" filter="url(#glowS)"/>
<rect x="187.8" y="300" width="15.4" height="11" rx="2" ry="2" fill="#2bff67" opacity="1" filter="url(#glowS)"/>
<rect x="207.2" y="300" width="15.4" height="11" rx="2" ry="2" fill="#0d5a26" opacity="0.4"/>
<rect x="226.6" y="300" width="15.4" height="11" rx="2" ry="2" fill="#0d5a26" opacity="0.4"/>
<rect x="246.0" y="300" width="15.4" height="11" rx="2" ry="2" fill="#0d5a26" opacity="0.4"/>
<rect x="265.4" y="300" width="15.4" height="11" rx="2" ry="2" fill="#0d5a26" opacity="0.4"/>
<rect x="284.79999999999995" y="300" width="15.4" height="11" rx="2" ry="2" fill="#0d5a26" opacity="0.4"/>
<rect x="304.2" y="300" width="15.4" height="11" rx="2" ry="2" fill="#0d5a26" opacity="0.4"/>
<rect x="323.6" y="300" width="15.4" height="11" rx="2" ry="2" fill="#0d5a26" opacity="0.4"/>
<rect x="61.0" y="327" width="64.25" height="60" rx="5" ry="5" fill="#04030f" opacity="1" stroke="#ffd400" stroke-width="1.3" filter="url(#glowS)"/>
<rect x="63.0" y="329" width="60.25" height="24.0" rx="4" ry="4" fill="#ffffff" opacity="0.05"/>
<text x="93.125" y="343" font-family="Menlo, monospace" font-size="9" font-weight="800" fill="#ffd400" text-anchor="middle" letter-spacing="1" opacity="1">HR</text>
<text x="93.125" y="371" font-family="Menlo, monospace" font-size="20" font-weight="800" fill="#f4f4ff" text-anchor="middle" letter-spacing="0" opacity="1">142</text>
<rect x="132.25" y="327" width="64.25" height="60" rx="5" ry="5" fill="#04030f" opacity="1" stroke="#2bff67" stroke-width="1.3" filter="url(#glowS)"/>
<rect x="134.25" y="329" width="60.25" height="24.0" rx="4" ry="4" fill="#ffffff" opacity="0.05"/>
<text x="164.375" y="343" font-family="Menlo, monospace" font-size="9" font-weight="800" fill="#2bff67" text-anchor="middle" letter-spacing="1" opacity="1">DIST</text>
<text x="164.375" y="371" font-family="Menlo, monospace" font-size="20" font-weight="800" fill="#f4f4ff" text-anchor="middle" letter-spacing="0" opacity="1">2.15</text>
<rect x="203.5" y="327" width="64.25" height="60" rx="5" ry="5" fill="#04030f" opacity="1" stroke="#21e6ff" stroke-width="1.3" filter="url(#glowS)"/>
<rect x="205.5" y="329" width="60.25" height="24.0" rx="4" ry="4" fill="#ffffff" opacity="0.05"/>
<text x="235.625" y="343" font-family="Menlo, monospace" font-size="9" font-weight="800" fill="#21e6ff" text-anchor="middle" letter-spacing="1" opacity="1">PACE</text>
<text x="235.625" y="371" font-family="Menlo, monospace" font-size="20" font-weight="800" fill="#f4f4ff" text-anchor="middle" letter-spacing="0" opacity="1">5:42</text>
<rect x="274.75" y="327" width="64.25" height="60" rx="5" ry="5" fill="#04030f" opacity="1" stroke="#ff2bd6" stroke-width="1.3" filter="url(#glowS)"/>
<rect x="276.75" y="329" width="60.25" height="24.0" rx="4" ry="4" fill="#ffffff" opacity="0.05"/>
<text x="306.875" y="343" font-family="Menlo, monospace" font-size="9" font-weight="800" fill="#ff2bd6" text-anchor="middle" letter-spacing="1" opacity="1">SPM</text>
<text x="306.875" y="371" font-family="Menlo, monospace" font-size="20" font-weight="800" fill="#f4f4ff" text-anchor="middle" letter-spacing="0" opacity="1">168</text>
<rect x="47" y="93" width="306" height="362" fill="url(#vign)" opacity="0.5" clip-path="url(#gclip)"/>
<text x="200.0" y="501" font-family="Menlo, monospace" font-size="22" font-weight="900" fill="#2b2356" text-anchor="middle" letter-spacing="2" opacity="0.9">SHUTTLX</text>
<text x="201.0" y="500" font-family="Menlo, monospace" font-size="22" font-weight="900" fill="#b3a6e8" text-anchor="middle" letter-spacing="2" opacity="0.5">SHUTTLX</text>
<text x="200.0" y="516" font-family="Menlo, monospace" font-size="9" font-weight="700" fill="#2b2356" text-anchor="middle" letter-spacing="4" opacity="0.7">INTERVAL  SYSTEM</text>
<circle cx="101" cy="621" r="62" fill="#000" opacity="0.12"/>
<rect x="86.0" y="568.0" width="30" height="106" rx="8" ry="8" fill="url(#dpad)" opacity="1" filter="url(#soft)"/>
<rect x="48.0" y="606.0" width="106" height="30" rx="8" ry="8" fill="url(#dpad)" opacity="1"/>
<circle cx="101" cy="621" r="13" fill="#101015"/>
<circle cx="101" cy="621" r="13" fill="none" stroke="#43434f" stroke-width="1" opacity="0.6"/>
<polygon points="101,573.0 97,580.0 105,580.0" fill="#5a5a68" transform="rotate(0 101 577.0)"/>
<polygon points="101,661.0 97,668.0 105,668.0" fill="#5a5a68" transform="rotate(180 101 665.0)"/>
<polygon points="145.0,617 141.0,624 149.0,624" fill="#5a5a68" transform="rotate(90 145.0 621)"/>
<polygon points="57.0,617 53.0,624 61.0,624" fill="#5a5a68" transform="rotate(270 57.0 621)"/>
<text x="101" y="692.0" font-family="Menlo, monospace" font-size="8" font-weight="800" fill="#2b2356" text-anchor="middle" letter-spacing="1.5" opacity="0.8">SKIP STEP</text>
<circle cx="273" cy="644" r="29" fill="#000" opacity="0.22"/>
<circle cx="273" cy="641" r="29" fill="#1a1430"/>
<circle cx="273" cy="641" r="25" fill="url(#btn)" filter="url(#soft)"/>
<ellipse cx="267" cy="633" rx="9" ry="6" fill="#fff" opacity="0.35"/>
<text x="273" y="646.78" font-family="Menlo, monospace" font-size="17" font-weight="900" fill="#3a0a1e" text-anchor="middle" letter-spacing="0" opacity="1">&#9632;</text>
<text x="273" y="685" font-family="Menlo, monospace" font-size="8" font-weight="800" fill="#2b2356" text-anchor="middle" letter-spacing="1.5" opacity="0.85">FINISH</text>
<circle cx="333" cy="606" r="29" fill="#000" opacity="0.22"/>
<circle cx="333" cy="603" r="29" fill="#1a1430"/>
<circle cx="333" cy="603" r="25" fill="url(#btn)" filter="url(#soft)"/>
<ellipse cx="327" cy="595" rx="9" ry="6" fill="#fff" opacity="0.35"/>
<text x="333" y="608.1" font-family="Menlo, monospace" font-size="15" font-weight="900" fill="#3a0a1e" text-anchor="middle" letter-spacing="0" opacity="1">&#10073;&#10073;</text>
<text x="333" y="647" font-family="Menlo, monospace" font-size="8" font-weight="800" fill="#2b2356" text-anchor="middle" letter-spacing="1.5" opacity="0.85">PAUSE</text>
<g transform="rotate(-20 160.0 701)">
<ellipse cx="160.0" cy="705" rx="30" ry="11" fill="#000" opacity="0.18"/>
<rect x="130.0" y="692" width="60" height="18" rx="9" ry="9" fill="url(#pill)" opacity="1" stroke="#15102a" stroke-width="1" filter="url(#soft)"/>
<rect x="134.0" y="694" width="52" height="6" rx="3" ry="3" fill="#ffffff" opacity="0.06"/>
</g>
<text x="160.0" y="727" font-family="Menlo, monospace" font-size="8" font-weight="800" fill="#2b2356" text-anchor="middle" letter-spacing="1.5" opacity="0.8">PREV</text>
<g transform="rotate(-20 232.0 701)">
<ellipse cx="232.0" cy="705" rx="30" ry="11" fill="#000" opacity="0.18"/>
<rect x="202.0" y="692" width="60" height="18" rx="9" ry="9" fill="url(#pill)" opacity="1" stroke="#15102a" stroke-width="1" filter="url(#soft)"/>
<rect x="206.0" y="694" width="52" height="6" rx="3" ry="3" fill="#ffffff" opacity="0.06"/>
</g>
<text x="232.0" y="727" font-family="Menlo, monospace" font-size="8" font-weight="800" fill="#2b2356" text-anchor="middle" letter-spacing="1.5" opacity="0.8">LAP</text>
<g transform="rotate(-20 313 713)">
<rect x="279" y="687" width="64" height="52" rx="9" ry="9" fill="#000" opacity="0.1"/>
<rect x="285" y="693" width="52" height="4" rx="2" ry="2" fill="#2b2356" opacity="0.75"/>
<rect x="285" y="703" width="52" height="4" rx="2" ry="2" fill="#2b2356" opacity="0.75"/>
<rect x="285" y="713" width="52" height="4" rx="2" ry="2" fill="#2b2356" opacity="0.75"/>
<rect x="285" y="723" width="52" height="4" rx="2" ry="2" fill="#2b2356" opacity="0.75"/>
<rect x="285" y="733" width="52" height="4" rx="2" ry="2" fill="#2b2356" opacity="0.75"/>
</g>
</g>
<path d="M29,17 Q200.0,69 371,17" fill="none" stroke="#fff" stroke-width="1" opacity="0.06"/>
</g></svg>