<svg xmlns="http://www.w3.org/2000/svg" width="900" height="900" viewBox="0 0 900 900">
<defs>
<linearGradient id="body" x1="0.15" y1="0" x2="0.7" y2="1"><stop offset="0" stop-color="#8675cf"/><stop offset="0.5" stop-color="#574a9c"/><stop offset="1" stop-color="#3d3275"/></linearGradient>
<linearGradient id="bezel" x1="0" y1="0" x2="0" y2="1"><stop offset="0" stop-color="#2a2a32"/><stop offset="1" stop-color="#16161c"/></linearGradient>
<radialGradient id="glass" cx="0.32" cy="0.2" r="1.1"><stop offset="0" stop-color="#0c2230"/><stop offset="1" stop-color="#06121b"/></radialGradient>
<radialGradient id="vign" cx="0.5" cy="0.5" r="0.75"><stop offset="0.55" stop-color="#000" stop-opacity="0"/><stop offset="1" stop-color="#000" stop-opacity="0.55"/></radialGradient>
<linearGradient id="dpad" x1="0" y1="0" x2="0" y2="1"><stop offset="0" stop-color="#43434f"/><stop offset="0.18" stop-color="#26262e"/><stop offset="1" stop-color="#101015"/></linearGradient>
<radialGradient id="btn" cx="0.36" cy="0.3" r="0.85"><stop offset="0" stop-color="#ff4d8d"/><stop offset="0.7" stop-color="#c11d5e"/><stop offset="1" stop-color="#7a0f3a"/></radialGradient>
<linearGradient id="pill" x1="0" y1="0" x2="0" y2="1"><stop offset="0" stop-color="#3a3358"/><stop offset="1" stop-color="#241f3c"/></linearGradient>
<linearGradient id="bodysheen" x1="0" y1="0" x2="1" y2="0"><stop offset="0" stop-color="#ffffff" stop-opacity="0.16"/><stop offset="0.25" stop-color="#ffffff" stop-opacity="0"/></linearGradient>
<filter id="glowS" x="-60%" y="-60%" width="220%" height="220%"><feGaussianBlur stdDeviation="1.6" result="b"/><feMerge><feMergeNode in="b"/><feMergeNode in="SourceGraphic"/></feMerge></filter>
<filter id="glowM" x="-60%" y="-60%" width="220%" height="220%"><feGaussianBlur stdDeviation="3" result="b"/><feMerge><feMergeNode in="b"/><feMergeNode in="SourceGraphic"/></feMerge></filter>
<filter id="soft" x="-40%" y="-40%" width="180%" height="180%"><feDropShadow dx="0" dy="3" stdDeviation="4" flood-color="#000" flood-opacity="0.55"/></filter>
</defs>
<rect x="0" y="0" width="900" height="900" fill="#eef0f6"/>
<g transform="translate(34,28)">
<rect x="0" y="0" width="360" height="800" rx="56" ry="56" fill="#0a0a0d" opacity="1" filter="url(#soft)"/>
<rect x="2" y="2" width="356" height="796" rx="54" ry="54" fill="none" opacity="1" stroke="#26262e" stroke-width="1.4"/>
<clipPath id="disp"><rect x="8" y="8" width="344" height="784" rx="48"/></clipPath>
<g clip-path="url(#disp)">
<rect x="8" y="8" width="344" height="784" fill="url(#body)"/>
<rect x="8" y="8" width="344" height="784" fill="url(#bodysheen)"/>
<rect x="8" y="8" width="344" height="784" fill="url(#vign)" opacity="0.5"/>
<circle cx="119" cy="126" r="0.7" fill="#fff" opacity="0.05"/><circle cx="232" cy="65" r="0.7" fill="#fff" opacity="0.05"/><circle cx="192" cy="295" r="0.7" fill="#fff" opacity="0.05"/><circle cx="28" cy="406" r="0.7" fill="#fff" opacity="0.05"/><circle cx="21" cy="348" r="0.7" fill="#fff" opacity="0.05"/><circle cx="32" cy="79" r="0.7" fill="#fff" opacity="0.05"/><circle cx="154" cy="656" r="0.7" fill="#fff" opacity="0.05"/><circle cx="51" cy="183" r="0.7" fill="#fff" opacity="0.05"/><circle cx="224" cy="751" r="0.7" fill="#fff" opacity="0.05"/><circle cx="207" cy="319" r="0.7" fill="#fff" opacity="0.05"/><circle cx="344" cy="45" r="0.7" fill="#fff" opacity="0.05"/><circle cx="303" cy="235" r="0.7" fill="#fff" opacity="0.05"/><circle cx="58" cy="100" r="0.7" fill="#fff" opacity="0.05"/><circle cx="114" cy="648" r="0.7" fill="#fff" opacity="0.05"/><circle cx="70" cy="464" r="0.7" fill="#fff" opacity="0.05"/><circle cx="228" cy="300" r="0.7" fill="#fff" opacity="0.05"/><circle cx="196" cy="57" r="0.7" fill="#fff" opacity="0.05"/><circle cx="29" cy="169" r="0.7" fill="#fff" opacity="0.05"/><circle cx="242" cy="343" r="0.7" fill="#fff" opacity="0.05"/><circle cx="116" cy="467" r="0.7" fill="#fff" opacity="0.05"/><circle cx="164" cy="243" r="0.7" fill="#fff" opacity="0.05"/><circle cx="281" cy="556" r="0.7" fill="#fff" opacity="0.05"/><circle cx="92" cy="458" r="0.7" fill="#fff" opacity="0.05"/><circle cx="189" cy="694" r="0.7" fill="#fff" opacity="0.05"/><circle cx="259" cy="234" r="0.7" fill="#fff" opacity="0.05"/><circle cx="345" cy="101" r="0.7" fill="#fff" opacity="0.05"/><circle cx="152" cy="602" r="0.7" fill="#fff" opacity="0.05"/><circle cx="60" cy="391" r="0.7" fill="#fff" opacity="0.05"/><circle cx="21" cy="532" r="0.7" fill="#fff" opacity="0.05"/><circle cx="271" cy="457" r="0.7" fill="#fff" opacity="0.05"/><circle cx="309" cy="254" r="0.7" fill="#fff" opacity="0.05"/><circle cx="247" cy="474" r="0.7" fill="#fff" opacity="0.05"/><circle cx="207" cy="366" r="0.7" fill="#fff" opacity="0.05"/><circle cx="297" cy="749" r="0.7" fill="#fff" opacity="0.05"/><circle cx="171" cy="529" r="0.7" fill="#fff" opacity="0.05"/><circle cx="29" cy="558" r="0.7" fill="#fff" opacity="0.05"/><circle cx="231" cy="787" r="0.7" fill="#fff" opacity="0.05"/><circle cx="291" cy="231" r="0.7" fill="#fff" opacity="0.05"/><circle cx="141" cy="532" r="0.7" fill="#fff" opacity="0.05"/><circle cx="16" cy="370" r="0.7" fill="#fff" opacity="0.05"/><circle cx="66" cy="100" r="0.7" fill="#fff" opacity="0.05"/><circle cx="28" cy="610" r="0.7" fill="#fff" opacity="0.05"/><circle cx="52" cy="202" r="0.7" fill="#fff" opacity="0.05"/><circle cx="142" cy="691" r="0.7" fill="#fff" opacity="0.05"/><circle cx="36" cy="360" r="0.7" fill="#fff" opacity="0.05"/><circle cx="197" cy="701" r="0.7" fill="#fff" opacity="0.05"/><circle cx="290" cy="685" r="0.7" fill="#fff" opacity="0.05"/><circle cx="104" cy="334" r="0.7" fill="#fff" opacity="0.05"/><circle cx="131" cy="701" r="0.7" fill="#fff" opacity="0.05"/><circle cx="337" cy="126" r="0.7" fill="#fff" opacity="0.05"/><circle cx="69" cy="190" r="0.7" fill="#fff" opacity="0.05"/><circle cx="88" cy="388" r="0.7" fill="#fff" opacity="0.05"/><circle cx="211" cy="214" r="0.7" fill="#fff" opacity="0.05"/><circle cx="9" cy="336" r="0.7" fill="#fff" opacity="0.05"/><circle cx="135" cy="452" r="0.7" fill="#fff" opacity="0.05"/><circle cx="336" cy="549" r="0.7" fill="#fff" opacity="0.05"/><circle cx="185" cy="492" r="0.7" fill="#fff" opacity="0.05"/><circle cx="241" cy="50" r="0.7" fill="#fff" opacity="0.05"/><circle cx="317" cy="619" r="0.7" fill="#fff" opacity="0.05"/><circle cx="309" cy="634" r="0.7" fill="#fff" opacity="0.05"/><circle cx="143" cy="321" r="0.7" fill="#fff" opacity="0.05"/><circle cx="44" cy="505" r="0.7" fill="#fff" opacity="0.05"/><circle cx="29" cy="61" r="0.7" fill="#fff" opacity="0.05"/><circle cx="80" cy="135" r="0.7" fill="#fff" opacity="0.05"/><circle cx="125" cy="49" r="0.7" fill="#fff" opacity="0.05"/><circle cx="8" cy="127" r="0.7" fill="#fff" opacity="0.05"/><circle cx="43" cy="293" r="0.7" fill="#fff" opacity="0.05"/><circle cx="17" cy="693" r="0.7" fill="#fff" opacity="0.05"/><circle cx="219" cy="124" r="0.7" fill="#fff" opacity="0.05"/><circle cx="95" cy="280" r="0.7" fill="#fff" opacity="0.05"/><circle cx="133" cy="104" r="0.7" fill="#fff" opacity="0.05"/><circle cx="300" cy="787" r="0.7" fill="#fff" opacity="0.05"/><circle cx="168" cy="387" r="0.7" fill="#fff" opacity="0.05"/><circle cx="38" cy="88" r="0.7" fill="#fff" opacity="0.05"/><circle cx="126" cy="216" r="0.7" fill="#fff" opacity="0.05"/><circle cx="293" cy="135" r="0.7" fill="#fff" opacity="0.05"/><circle cx="16" cy="754" r="0.7" fill="#fff" opacity="0.05"/><circle cx="190" cy="123" r="0.7" fill="#fff" opacity="0.05"/><circle cx="195" cy="29" r="0.7" fill="#fff" opacity="0.05"/><circle cx="190" cy="775" r="0.7" fill="#fff" opacity="0.05"/><circle cx="305" cy="554" r="0.7" fill="#fff" opacity="0.05"/><circle cx="98" cy="295" r="0.7" fill="#fff" opacity="0.05"/><circle cx="65" cy="613" r="0.7" fill="#fff" opacity="0.05"/><circle cx="191" cy="619" r="0.7" fill="#fff" opacity="0.05"/><circle cx="121" cy="183" r="0.7" fill="#fff" opacity="0.05"/><circle cx="287" cy="780" r="0.7" fill="#fff" opacity="0.05"/><circle cx="301" cy="640" r="0.7" fill="#fff" opacity="0.05"/><circle cx="290" cy="588" r="0.7" fill="#fff" opacity="0.05"/><circle cx="86" cy="414" r="0.7" fill="#fff" opacity="0.05"/><circle cx="130" cy="31" r="0.7" fill="#fff" opacity="0.05"/><circle cx="18" cy="227" r="0.7" fill="#fff" opacity="0.05"/><circle cx="97" cy="551" r="0.7" fill="#fff" opacity="0.05"/><circle cx="337" cy="359" r="0.7" fill="#fff" opacity="0.05"/><circle cx="330" cy="783" r="0.7" fill="#fff" opacity="0.05"/><circle cx="337" cy="294" r="0.7" fill="#fff" opacity="0.05"/><circle cx="84" cy="186" r="0.7" fill="#fff" opacity="0.05"/><circle cx="76" cy="168" r="0.7" fill="#fff" opacity="0.05"/><circle cx="223" cy="714" r="0.7" fill="#fff" opacity="0.05"/><circle cx="297" cy="384" r="0.7" fill="#fff" opacity="0.05"/><circle cx="233" cy="635" r="0.7" fill="#fff" opacity="0.05"/><circle cx="37" cy="526" r="0.7" fill="#fff" opacity="0.05"/><circle cx="321" cy="621" r="0.7" fill="#fff" opacity="0.05"/><circle cx="266" cy="383" r="0.7" fill="#fff" opacity="0.05"/><circle cx="69" cy="627" r="0.7" fill="#fff" opacity="0.05"/><circle cx="122" cy="636" r="0.7" fill="#fff" opacity="0.05"/><circle cx="342" cy="318" r="0.7" fill="#fff" opacity="0.05"/><circle cx="146" cy="750" r="0.7" fill="#fff" opacity="0.05"/><circle cx="257" cy="141" r="0.7" fill="#fff" opacity="0.05"/><circle cx="52" cy="127" r="0.7" fill="#fff" opacity="0.05"/><circle cx="319" cy="640" r="0.7" fill="#fff" opacity="0.05"/><circle cx="58" cy="656" r="0.7" fill="#fff" opacity="0.05"/><circle cx="345" cy="523" r="0.7" fill="#fff" opacity="0.05"/><circle cx="129" cy="438" r="0.7" fill="#fff" opacity="0.05"/><circle cx="53" cy="19" r="0.7" fill="#fff" opacity="0.05"/><circle cx="342" cy="517" r="0.7" fill="#fff" opacity="0.05"/><circle cx="189" cy="740" r="0.7" fill="#fff" opacity="0.05"/><circle cx="157" cy="691" r="0.7" fill="#fff" opacity="0.05"/><circle cx="292" cy="173" r="0.7" fill="#fff" opacity="0.05"/><circle cx="95" cy="238" r="0.7" fill="#fff" opacity="0.05"/><circle cx="91" cy="468" r="0.7" fill="#fff" opacity="0.05"/><circle cx="97" cy="337" r="0.7" fill="#fff" opacity="0.05"/><circle cx="53" cy="721" r="0.7" fill="#fff" opacity="0.05"/><circle cx="130" cy="367" r="0.7" fill="#fff" opacity="0.05"/><circle cx="209" cy="717" r="0.7" fill="#fff" opacity="0.05"/><circle cx="153" cy="727" r="0.7" fill="#fff" opacity="0.05"/><circle cx="181" cy="425" r="0.7" fill="#fff" opacity="0.05"/><circle cx="188" cy="23" r="0.7" fill="#fff" opacity="0.05"/><circle cx="159" cy="152" r="0.7" fill="#fff" opacity="0.05"/><circle cx="9" cy="635" r="0.7" fill="#fff" opacity="0.05"/><circle cx="67" cy="379" r="0.7" fill="#fff" opacity="0.05"/><circle cx="257" cy="444" r="0.7" fill="#fff" opacity="0.05"/><circle cx="120" cy="414" r="0.7" fill="#fff" opacity="0.05"/><circle cx="199" cy="623" r="0.7" fill="#fff" opacity="0.05"/><circle cx="45" cy="447" r="0.7" fill="#fff" opacity="0.05"/><circle cx="93" cy="225" r="0.7" fill="#fff" opacity="0.05"/><circle cx="274" cy="406" r="0.7" fill="#fff" opacity="0.05"/><circle cx="201" cy="604" r="0.7" fill="#fff" opacity="0.05"/><circle cx="322" cy="356" r="0.7" fill="#fff" opacity="0.05"/><circle cx="219" cy="404" r="0.7" fill="#fff" opacity="0.05"/><circle cx="184" cy="551" r="0.7" fill="#fff" opacity="0.05"/><circle cx="164" cy="426" r="0.7" fill="#fff" opacity="0.05"/><circle cx="172" cy="746" r="0.7" fill="#fff" opacity="0.05"/><circle cx="249" cy="695" r="0.7" fill="#fff" opacity="0.05"/><circle cx="332" cy="212" r="0.7" fill="#fff" opacity="0.05"/><circle cx="200" cy="748" r="0.7" fill="#fff" opacity="0.05"/><circle cx="297" cy="116" r="0.7" fill="#fff" opacity="0.05"/><circle cx="50" cy="355" r="0.7" fill="#fff" opacity="0.05"/><circle cx="33" cy="197" r="0.7" fill="#fff" opacity="0.05"/><circle cx="33" cy="533" r="0.7" fill="#fff" opacity="0.05"/><circle cx="278" cy="711" r="0.7" fill="#fff" opacity="0.05"/><circle cx="61" cy="569" r="0.7" fill="#fff" opacity="0.05"/><circle cx="235" cy="120" r="0.7" fill="#fff" opacity="0.05"/><circle cx="312" cy="767" r="0.7" fill="#fff" opacity="0.05"/><circle cx="84" cy="755" r="0.7" fill="#fff" opacity="0.05"/><circle cx="145" cy="390" r="0.7" fill="#fff" opacity="0.05"/><circle cx="349" cy="661" r="0.7" fill="#fff" opacity="0.05"/><circle cx="64" cy="346" r="0.7" fill="#fff" opacity="0.05"/><circle cx="185" cy="274" r="0.7" fill="#fff" opacity="0.05"/><circle cx="75" cy="258" r="0.7" fill="#fff" opacity="0.05"/><circle cx="256" cy="23" r="0.7" fill="#fff" opacity="0.05"/><circle cx="199" cy="353" r="0.7" fill="#fff" opacity="0.05"/><circle cx="14" cy="268" r="0.7" fill="#fff" opacity="0.05"/><circle cx="223" cy="410" r="0.7" fill="#fff" opacity="0.05"/><circle cx="30" cy="780" r="0.7" fill="#fff" opacity="0.05"/><circle cx="279" cy="770" r="0.7" fill="#fff" opacity="0.05"/><circle cx="44" cy="216" r="0.7" fill="#fff" opacity="0.05"/><circle cx="22" cy="619" r="0.7" fill="#fff" opacity="0.05"/><circle cx="101" cy="110" r="0.7" fill="#fff" opacity="0.05"/><circle cx="153" cy="723" r="0.7" fill="#fff" opacity="0.05"/><circle cx="290" cy="211" r="0.7" fill="#fff" opacity="0.05"/><circle cx="59" cy="729" r="0.7" fill="#fff" opacity="0.05"/><circle cx="204" cy="557" r="0.7" fill="#fff" opacity="0.05"/><circle cx="39" cy="53" r="0.7" fill="#fff" opacity="0.05"/><circle cx="245" cy="341" r="0.7" fill="#fff" opacity="0.05"/><circle cx="33" cy="744" r="0.7" fill="#fff" opacity="0.05"/><circle cx="226" cy="636" r="0.7" fill="#fff" opacity="0.05"/><circle cx="37" cy="679" r="0.7" fill="#fff" opacity="0.05"/><circle cx="31" cy="684" r="0.7" fill="#fff" opacity="0.05"/><circle cx="164" cy="274" r="0.7" fill="#fff" opacity="0.05"/><circle cx="198" cy="735" r="0.7" fill="#fff" opacity="0.05"/><circle cx="100" cy="109" r="0.7" fill="#fff" opacity="0.05"/><circle cx="189" cy="195" r="0.7" fill="#fff" opacity="0.05"/><circle cx="46" cy="135" r="0.7" fill="#fff" opacity="0.05"/><circle cx="25" cy="166" r="0.7" fill="#fff" opacity="0.05"/><circle cx="115" cy="247" r="0.7" fill="#fff" opacity="0.05"/><circle cx="269" cy="235" r="0.7" fill="#fff" opacity="0.05"/><circle cx="180" cy="147" r="0.7" fill="#fff" opacity="0.05"/><circle cx="127" cy="22" r="0.7" fill="#fff" opacity="0.05"/><circle cx="94" cy="20" r="0.7" fill="#fff" opacity="0.05"/><circle cx="260" cy="440" r="0.7" fill="#fff" opacity="0.05"/><circle cx="73" cy="380" r="0.7" fill="#fff" opacity="0.05"/><circle cx="330" cy="91" r="0.7" fill="#fff" opacity="0.05"/><circle cx="290" cy="347" r="0.7" fill="#fff" opacity="0.05"/><circle cx="178" cy="662" r="0.7" fill="#fff" opacity="0.05"/><circle cx="143" cy="405" r="0.7" fill="#fff" opacity="0.05"/><circle cx="245" cy="778" r="0.7" fill="#fff" opacity="0.05"/><circle cx="126" cy="661" r="0.7" fill="#fff" opacity="0.05"/><circle cx="251" cy="507" r="0.7" fill="#fff" opacity="0.05"/><circle cx="147" cy="280" r="0.7" fill="#fff" opacity="0.05"/><circle cx="27" cy="110" r="0.7" fill="#fff" opacity="0.05"/>
<rect x="138.0" y="17" width="84" height="24" rx="12" ry="12" fill="#000" opacity="1"/>
<circle cx="208.0" cy="29" r="3.6" fill="#0c1418"/>
<rect x="28" y="54" width="304" height="388" rx="17" ry="17" fill="url(#bezel)" opacity="1" stroke="#000" stroke-width="1" filter="url(#soft)"/>
<circle cx="44" cy="71" r="3" fill="#ff3b53" filter="url(#glowS)"/>
<text x="54" y="74" font-family="Menlo, monospace" font-size="8" font-weight="700" fill="#ff3b53" text-anchor="start" letter-spacing="1" opacity="1">POWER</text>
<text x="319" y="74" font-family="Menlo, monospace" font-size="7" font-weight="700" fill="#6b6b78" text-anchor="end" letter-spacing="1.5" opacity="1">DOT-MATRIX HR</text>
<rect x="43" y="85" width="274" height="342" rx="8" ry="8" fill="url(#glass)" opacity="1"/>
<rect x="43" y="85" width="274" height="342" rx="8" ry="8" fill="none" opacity="0.25" stroke="#21e6ff" stroke-width="1"/>
<clipPath id="gclip"><rect x="43" y="85" width="274" height="342" rx="8"/></clipPath>
<g clip-path="url(#gclip)"><rect x="43" y="88" width="274" height="1.2" fill="#000" opacity="0.18"/><rect x="43" y="92" width="274" height="1.2" fill="#000" opacity="0.18"/><rect x="43" y="96" width="274" height="1.2" fill="#000" opacity="0.18"/><rect x="43" y="100" width="274" height="1.2" fill="#000" opacity="0.18"/><rect x="43" y="104" width="274" height="1.2" fill="#000" opacity="0.18"/><rect x="43" y="108" width="274" height="1.2" fill="#000" opacity="0.18"/><rect x="43" y="112" width="274" height="1.2" fill="#000" opacity="0.18"/><rect x="43" y="116" width="274" height="1.2" fill="#000" opacity="0.18"/><rect x="43" y="120" width="274" height="1.2" fill="#000" opacity="0.18"/><rect x="43" y="124" width="274" height="1.2" fill="#000" opacity="0.18"/><rect x="43" y="128" width="274" height="1.2" fill="#000" opacity="0.18"/><rect x="43" y="132" width="274" height="1.2" fill="#000" opacity="0.18"/><rect x="43" y="136" width="274" height="1.2" fill="#000" opacity="0.18"/><rect x="43" y="140" width="274" height="1.2" fill="#000" opacity="0.18"/><rect x="43" y="144" width="274" height="1.2" fill="#000" opacity="0.18"/><rect x="43" y="148" width="274" height="1.2" fill="#000" opacity="0.18"/><rect x="43" y="152" width="274" height="1.2" fill="#000" opacity="0.18"/><rect x="43" y="156" width="274" height="1.2" fill="#000" opacity="0.18"/><rect x="43" y="160" width="274" height="1.2" fill="#000" opacity="0.18"/><rect x="43" y="164" width="274" height="1.2" fill="#000" opacity="0.18"/><rect x="43" y="168" width="274" height="1.2" fill="#000" opacity="0.18"/><rect x="43" y="172" width="274" height="1.2" fill="#000" opacity="0.18"/><rect x="43" y="176" width="274" height="1.2" fill="#000" opacity="0.18"/><rect x="43" y="180" width="274" height="1.2" fill="#000" opacity="0.18"/><rect x="43" y="184" width="274" height="1.2" fill="#000" opacity="0.18"/><rect x="43" y="188" width="274" height="1.2" fill="#000" opacity="0.18"/><rect x="43" y="192" width="274" height="1.2" fill="#000" opacity="0.18"/><rect x="43" y="196" width="274" height="1.2" fill="#000" opacity="0.18"/><rect x="43" y="200" width="274" height="1.2" fill="#000" opacity="0.18"/><rect x="43" y="204" width="274" height="1.2" fill="#000" opacity="0.18"/><rect x="43" y="208" width="274" height="1.2" fill="#000" opacity="0.18"/><rect x="43" y="212" width="274" height="1.2" fill="#000" opacity="0.18"/><rect x="43" y="216" width="274" height="1.2" fill="#000" opacity="0.18"/><rect x="43" y="220" width="274" height="1.2" fill="#000" opacity="0.18"/><rect x="43" y="224" width="274" height="1.2" fill="#000" opacity="0.18"/><rect x="43" y="228" width="274" height="1.2" fill="#000" opacity="0.18"/><rect x="43" y="232" width="274" height="1.2" fill="#000" opacity="0.18"/><rect x="43" y="236" width="274" height="1.2" fill="#000" opacity="0.18"/><rect x="43" y="240" width="274" height="1.2" fill="#000" opacity="0.18"/><rect x="43" y="244" width="274" height="1.2" fill="#000" opacity="0.18"/><rect x="43" y="248" width="274" height="1.2" fill="#000" opacity="0.18"/><rect x="43" y="252" width="274" height="1.2" fill="#000" opacity="0.18"/><rect x="43" y="256" width="274" height="1.2" fill="#000" opacity="0.18"/><rect x="43" y="260" width="274" height="1.2" fill="#000" opacity="0.18"/><rect x="43" y="264" width="274" height="1.2" fill="#000" opacity="0.18"/><rect x="43" y="268" width="274" height="1.2" fill="#000" opacity="0.18"/><rect x="43" y="272" width="274" height="1.2" fill="#000" opacity="0.18"/><rect x="43" y="276" width="274" height="1.2" fill="#000" opacity="0.18"/><rect x="43" y="280" width="274" height="1.2" fill="#000" opacity="0.18"/><rect x="43" y="284" width="274" height="1.2" fill="#000" opacity="0.18"/><rect x="43" y="288" width="274" height="1.2" fill="#000" opacity="0.18"/><rect x="43" y="292" width="274" height="1.2" fill="#000" opacity="0.18"/><rect x="43" y="296" width="274" height="1.2" fill="#000" opacity="0.18"/><rect x="43" y="300" width="274" height="1.2" fill="#000" opacity="0.18"/><rect x="43" y="304" width="274" height="1.2" fill="#000" opacity="0.18"/><rect x="43" y="308" width="274" height="1.2" fill="#000" opacity="0.18"/><rect x="43" y="312" width="274" height="1.2" fill="#000" opacity="0.18"/><rect x="43" y="316" width="274" height="1.2" fill="#000" opacity="0.18"/><rect x="43" y="320" width="274" height="1.2" fill="#000" opacity="0.18"/><rect x="43" y="324" width="274" height="1.2" fill="#000" opacity="0.18"/><rect x="43" y="328" width="274" height="1.2" fill="#000" opacity="0.18"/><rect x="43" y="332" width="274" height="1.2" fill="#000" opacity="0.18"/><rect x="43" y="336" width="274" height="1.2" fill="#000" opacity="0.18"/><rect x="43" y="340" width="274" height="1.2" fill="#000" opacity="0.18"/><rect x="43" y="344" width="274" height="1.2" fill="#000" opacity="0.18"/><rect x="43" y="348" width="274" height="1.2" fill="#000" opacity="0.18"/><rect x="43" y="352" width="274" height="1.2" fill="#000" opacity="0.18"/><rect x="43" y="356" width="274" height="1.2" fill="#000" opacity="0.18"/><rect x="43" y="360" width="274" height="1.2" fill="#000" opacity="0.18"/><rect x="43" y="364" width="274" height="1.2" fill="#000" opacity="0.18"/><rect x="43" y="368" width="274" height="1.2" fill="#000" opacity="0.18"/><rect x="43" y="372" width="274" height="1.2" fill="#000" opacity="0.18"/><rect x="43" y="376" width="274" height="1.2" fill="#000" opacity="0.18"/><rect x="43" y="380" width="274" height="1.2" fill="#000" opacity="0.18"/><rect x="43" y="384" width="274" height="1.2" fill="#000" opacity="0.18"/><rect x="43" y="388" width="274" height="1.2" fill="#000" opacity="0.18"/><rect x="43" y="392" width="274" height="1.2" fill="#000" opacity="0.18"/><rect x="43" y="396" width="274" height="1.2" fill="#000" opacity="0.18"/><rect x="43" y="400" width="274" height="1.2" fill="#000" opacity="0.18"/><rect x="43" y="404" width="274" height="1.2" fill="#000" opacity="0.18"/><rect x="43" y="408" width="274" height="1.2" fill="#000" opacity="0.18"/><rect x="43" y="412" width="274" height="1.2" fill="#000" opacity="0.18"/><rect x="43" y="416" width="274" height="1.2" fill="#000" opacity="0.18"/><rect x="43" y="420" width="274" height="1.2" fill="#000" opacity="0.18"/><rect x="43" y="424" width="274" height="1.2" fill="#000" opacity="0.18"/></g>
<text x="56" y="109" font-family="Menlo, monospace" font-size="10" font-weight="800" fill="#21e6ff" text-anchor="start" letter-spacing="1" opacity="1">1UP</text>
<text x="56" y="134" font-family="Menlo, monospace" font-size="24" font-weight="800" fill="#ffd400" filter="url(#glowS)">142</text>
<text x="109" y="134" font-family="Menlo, monospace" font-size="12" font-weight="700" fill="#ffd400" text-anchor="start" letter-spacing="0" opacity="1">&#9829; Z3</text>
<text x="304" y="109" font-family="Menlo, monospace" font-size="10" font-weight="800" fill="#ff2bd6" text-anchor="end" letter-spacing="1" opacity="1">HI-SCORE</text>
<text x="304" y="134" font-family="Menlo, monospace" font-size="24" font-weight="800" fill="#2bff67" text-anchor="end" filter="url(#glowS)">03280</text>
<text x="304" y="147" font-family="Menlo, monospace" font-size="8" font-weight="700" fill="#3a7a8f" text-anchor="end" letter-spacing="1" opacity="1">STEPS</text>
<g filter="url(#glowM)"><polygon points="75.788,171.104 80.576,167.68400000000003 99.424,167.68400000000003 104.212,171.104 99.424,174.524 80.576,174.524" fill="#2bff67" opacity="1"/>
<polygon points="75.788,201.0 80.576,197.58 99.424,197.58 104.212,201.0 99.424,204.42 80.576,204.42" fill="#0d5a26" opacity="0.13"/>
<polygon points="75.788,230.896 80.576,227.476 99.424,227.476 104.212,230.896 99.424,234.31599999999997 80.576,234.31599999999997" fill="#2bff67" opacity="1"/>
<polygon points="75.104,173.156 78.524,177.94400000000002 78.524,194.844 75.104,199.632 71.684,194.844 71.684,177.94400000000002" fill="#2bff67" opacity="1"/>
<polygon points="104.896,173.156 108.316,177.94400000000002 108.316,194.844 104.896,199.632 101.476,194.844 101.476,177.94400000000002" fill="#2bff67" opacity="1"/>
<polygon points="75.104,202.368 78.524,207.156 78.524,224.05599999999998 75.104,228.844 71.684,224.05599999999998 71.684,207.156" fill="#2bff67" opacity="1"/>
<polygon points="104.896,202.368 108.316,207.156 108.316,224.05599999999998 104.896,228.844 101.476,224.05599999999998 101.476,207.156" fill="#2bff67" opacity="1"/>
<polygon points="125.788,171.104 130.576,167.68400000000003 149.42399999999998,167.68400000000003 154.212,171.104 149.42399999999998,174.524 130.576,174.524" fill="#0d5a26" opacity="0.13"/>
<polygon points="125.788,201.0 130.576,197.58 149.42399999999998,197.58 154.212,201.0 149.42399999999998,204.42 130.576,204.42" fill="#0d5a26" opacity="0.13"/>
<polygon points="125.788,230.896 130.576,227.476 149.42399999999998,227.476 154.212,230.896 149.42399999999998,234.31599999999997 130.576,234.31599999999997" fill="#0d5a26" opacity="0.13"/>
<polygon points="125.104,173.156 128.524,177.94400000000002 128.524,194.844 125.104,199.632 121.684,194.844 121.684,177.94400000000002" fill="#0d5a26" opacity="0.13"/>
<polygon points="154.896,173.156 158.31599999999997,177.94400000000002 158.31599999999997,194.844 154.896,199.632 151.476,194.844 151.476,177.94400000000002" fill="#2bff67" opacity="1"/>
<polygon points="125.104,202.368 128.524,207.156 128.524,224.05599999999998 125.104,228.844 121.684,224.05599999999998 121.684,207.156" fill="#0d5a26" opacity="0.13"/>
<polygon points="154.896,202.368 158.31599999999997,207.156 158.31599999999997,224.05599999999998 154.896,228.844 151.476,224.05599999999998 151.476,207.156" fill="#2bff67" opacity="1"/>
<circle cx="177.0" cy="190.12" r="4.08" fill="#2bff67"/>
<circle cx="177.0" cy="211.88" r="4.08" fill="#2bff67"/>
<polygon points="187.788,171.104 192.57600000000002,167.68400000000003 211.42399999999998,167.68400000000003 216.212,171.104 211.42399999999998,174.524 192.57600000000002,174.524" fill="#0d5a26" opacity="0.13"/>
<polygon points="187.788,201.0 192.57600000000002,197.58 211.42399999999998,197.58 216.212,201.0 211.42399999999998,204.42 192.57600000000002,204.42" fill="#2bff67" opacity="1"/>
<polygon points="187.788,230.896 192.57600000000002,227.476 211.42399999999998,227.476 216.212,230.896 211.42399999999998,234.31599999999997 192.57600000000002,234.31599999999997" fill="#0d5a26" opacity="0.13"/>
<polygon points="187.104,173.156 190.524,177.94400000000002 190.524,194.844 187.104,199.632 183.68400000000003,194.844 183.68400000000003,177.94400000000002" fill="#2bff67" opacity="1"/>
<polygon points="216.896,173.156 220.31599999999997,177.94400000000002 220.31599999999997,194.844 216.896,199.632 213.476,194.844 213.476,177.94400000000002" fill="#2bff67" opacity="1"/>
<polygon points="187.104,202.368 190.524,207.156 190.524,224.05599999999998 187.104,228.844 183.68400000000003,224.05599999999998 183.68400000000003,207.156" fill="#0d5a26" opacity="0.13"/>
<polygon points="216.896,202.368 220.31599999999997,207.156 220.31599999999997,224.05599999999998 216.896,228.844 213.476,224.05599999999998 213.476,207.156" fill="#2bff67" opacity="1"/>
<polygon points="237.788,171.104 242.57600000000002,167.68400000000003 261.424,167.68400000000003 266.212,171.104 261.424,174.524 242.57600000000002,174.524" fill="#2bff67" opacity="1"/>
<polygon points="237.788,201.0 242.57600000000002,197.58 261.424,197.58 266.212,201.0 261.424,204.42 242.57600000000002,204.42" fill="#2bff67" opacity="1"/>
<polygon points="237.788,230.896 242.57600000000002,227.476 261.424,227.476 266.212,230.896 261.424,234.31599999999997 242.57600000000002,234.31599999999997" fill="#2bff67" opacity="1"/>
<polygon points="237.104,173.156 240.524,177.94400000000002 240.524,194.844 237.104,199.632 233.68400000000003,194.844 233.68400000000003,177.94400000000002" fill="#2bff67" opacity="1"/>
<polygon points="266.896,173.156 270.31600000000003,177.94400000000002 270.31600000000003,194.844 266.896,199.632 263.476,194.844 263.476,177.94400000000002" fill="#2bff67" opacity="1"/>
<polygon points="237.104,202.368 240.524,207.156 240.524,224.05599999999998 237.104,228.844 233.68400000000003,224.05599999999998 233.68400000000003,207.156" fill="#2bff67" opacity="1"/>
<polygon points="266.896,202.368 270.31600000000003,207.156 270.31600000000003,224.05599999999998 266.896,228.844 263.476,224.05599999999998 263.476,207.156" fill="#2bff67" opacity="1"/></g>
<text x="180.0" y="253" font-family="Menlo, monospace" font-size="10" font-weight="800" fill="#21e6ff" text-anchor="middle" letter-spacing="3" opacity="0.85">WORK REMAINING</text>
<text x="56" y="285" font-family="Menlo, monospace" font-size="9" font-weight="800" fill="#21e6ff" text-anchor="start" letter-spacing="1" opacity="1">STAGE 3/8</text>
<rect x="135.0" y="276" width="13.2" height="10" rx="2" ry="2" fill="#2bff67" opacity="1" filter="url(#glowS)"/>
<rect x="152.2" y="276" width="13.2" height="10" rx="2" ry="2" fill="#2bff67" opacity="1" filter="url(#glowS)"/>
<rect x="169.4" y="276" width="13.2" height="10" rx="2" ry="2" fill="#2bff67" opacity="1" filter="url(#glowS)"/>
<rect x="186.6" y="276" width="13.2" height="10" rx="2" ry="2" fill="#0d5a26" opacity="0.4"/>
<rect x="203.8" y="276" width="13.2" height="10" rx="2" ry="2" fill="#0d5a26" opacity="0.4"/>
<rect x="221.0" y="276" width="13.2" height="10" rx="2" ry="2" fill="#0d5a26" opacity="0.4"/>
<rect x="238.2" y="276" width="13.2" height="10" rx="2" ry="2" fill="#0d5a26" opacity="0.4"/>
<rect x="255.39999999999998" y="276" width="13.2" height="10" rx="2" ry="2" fill="#0d5a26" opacity="0.4"/>
<rect x="272.6" y="276" width="13.2" height="10" rx="2" ry="2" fill="#0d5a26" opacity="0.4"/>
<rect x="289.79999999999995" y="276" width="13.2" height="10" rx="2" ry="2" fill="#0d5a26" opacity="0.4"/>
<rect x="56.0" y="300" width="57.5" height="56" rx="5" ry="5" fill="#04030f" opacity="1" stroke="#ffd400" stroke-width="1.3" filter="url(#glowS)"/>
<rect x="58.0" y="302" width="53.5" height="22.400000000000002" rx="4" ry="4" fill="#ffffff" opacity="0.05"/>
<text x="84.75" y="315" font-family="Menlo, monospace" font-size="8" font-weight="800" fill="#ffd400" text-anchor="middle" letter-spacing="1" opacity="1">HR</text>
<text x="84.75" y="341" font-family="Menlo, monospace" font-size="18" font-weight="800" fill="#f4f4ff" text-anchor="middle" letter-spacing="0" opacity="1">142</text>
<rect x="119.5" y="300" width="57.5" height="56" rx="5" ry="5" fill="#04030f" opacity="1" stroke="#2bff67" stroke-width="1.3" filter="url(#glowS)"/>
<rect x="121.5" y="302" width="53.5" height="22.400000000000002" rx="4" ry="4" fill="#ffffff" opacity="0.05"/>
<text x="148.25" y="315" font-family="Menlo, monospace" font-size="8" font-weight="800" fill="#2bff67" text-anchor="middle" letter-spacing="1" opacity="1">DIST</text>
<text x="148.25" y="341" font-family="Menlo, monospace" font-size="18" font-weight="800" fill="#f4f4ff" text-anchor="middle" letter-spacing="0" opacity="1">2.15</text>
<rect x="183.0" y="300" width="57.5" height="56" rx="5" ry="5" fill="#04030f" opacity="1" stroke="#21e6ff" stroke-width="1.3" filter="url(#glowS)"/>
<rect x="185.0" y="302" width="53.5" height="22.400000000000002" rx="4" ry="4" fill="#ffffff" opacity="0.05"/>
<text x="211.75" y="315" font-family="Menlo, monospace" font-size="8" font-weight="800" fill="#21e6ff" text-anchor="middle" letter-spacing="1" opacity="1">PACE</text>
<text x="211.75" y="341" font-family="Menlo, monospace" font-size="18" font-weight="800" fill="#f4f4ff" text-anchor="middle" letter-spacing="0" opacity="1">5:42</text>
<rect x="246.5" y="300" width="57.5" height="56" rx="5" ry="5" fill="#04030f" opacity="1" stroke="#ff2bd6" stroke-width="1.3" filter="url(#glowS)"/>
<rect x="248.5" y="302" width="53.5" height="22.400000000000002" rx="4" ry="4" fill="#ffffff" opacity="0.05"/>
<text x="275.25" y="315" font-family="Menlo, monospace" font-size="8" font-weight="800" fill="#ff2bd6" text-anchor="middle" letter-spacing="1" opacity="1">SPM</text>
<text x="275.25" y="341" font-family="Menlo, monospace" font-size="18" font-weight="800" fill="#f4f4ff" text-anchor="middle" letter-spacing="0" opacity="1">168</text>
<rect x="43" y="85" width="274" height="342" fill="url(#vign)" opacity="0.5" clip-path="url(#gclip)"/>
<text x="180.0" y="470" font-family="Menlo, monospace" font-size="21" font-weight="900" fill="#2b2356" text-anchor="middle" letter-spacing="2" opacity="0.9">SHUTTLX</text>
<text x="181.0" y="469" font-family="Menlo, monospace" font-size="21" font-weight="900" fill="#b3a6e8" text-anchor="middle" letter-spacing="2" opacity="0.5">SHUTTLX</text>
<text x="180.0" y="485" font-family="Menlo, monospace" font-size="8" font-weight="700" fill="#2b2356" text-anchor="middle" letter-spacing="4" opacity="0.7">INTERVAL  SYSTEM</text>
<circle cx="94" cy="582" r="58" fill="#000" opacity="0.12"/>
<rect x="80.0" y="533.0" width="28" height="98" rx="8" ry="8" fill="url(#dpad)" opacity="1" filter="url(#soft)"/>
<rect x="45.0" y="568.0" width="98" height="28" rx="8" ry="8" fill="url(#dpad)" opacity="1"/>
<circle cx="94" cy="582" r="12" fill="#101015"/>
<circle cx="94" cy="582" r="12" fill="none" stroke="#43434f" stroke-width="1" opacity="0.6"/>
<polygon points="94,538.0 90,545.0 98,545.0" fill="#5a5a68" transform="rotate(0 94 542.0)"/>
<polygon points="94,618.0 90,625.0 98,625.0" fill="#5a5a68" transform="rotate(180 94 622.0)"/>
<polygon points="134.0,578 130.0,585 138.0,585" fill="#5a5a68" transform="rotate(90 134.0 582)"/>
<polygon points="54.0,578 50.0,585 58.0,585" fill="#5a5a68" transform="rotate(270 54.0 582)"/>
<text x="94" y="647.0" font-family="Menlo, monospace" font-size="8" font-weight="800" fill="#2b2356" text-anchor="middle" letter-spacing="1.5" opacity="0.8">SKIP STEP</text>
<circle cx="244" cy="603" r="27" fill="#000" opacity="0.22"/>
<circle cx="244" cy="600" r="27" fill="#1a1430"/>
<circle cx="244" cy="600" r="23" fill="url(#btn)" filter="url(#soft)"/>
<ellipse cx="239" cy="593" rx="8" ry="5" fill="#fff" opacity="0.35"/>
<text x="244" y="605.44" font-family="Menlo, monospace" font-size="16" font-weight="900" fill="#3a0a1e" text-anchor="middle" letter-spacing="0" opacity="1">&#9632;</text>
<text x="244" y="641" font-family="Menlo, monospace" font-size="8" font-weight="800" fill="#2b2356" text-anchor="middle" letter-spacing="1.5" opacity="0.85">FINISH</text>
<circle cx="300" cy="567" r="27" fill="#000" opacity="0.22"/>
<circle cx="300" cy="564" r="27" fill="#1a1430"/>
<circle cx="300" cy="564" r="23" fill="url(#btn)" filter="url(#soft)"/>
<ellipse cx="295" cy="557" rx="8" ry="5" fill="#fff" opacity="0.35"/>
<text x="300" y="568.76" font-family="Menlo, monospace" font-size="14" font-weight="900" fill="#3a0a1e" text-anchor="middle" letter-spacing="0" opacity="1">&#10073;&#10073;</text>
<text x="300" y="605" font-family="Menlo, monospace" font-size="8" font-weight="800" fill="#2b2356" text-anchor="middle" letter-spacing="1.5" opacity="0.85">PAUSE</text>
<g transform="rotate(-20 142.0 660)">
<ellipse cx="142.0" cy="664" rx="28" ry="10" fill="#000" opacity="0.18"/>
<rect x="114.0" y="652" width="56" height="16" rx="8" ry="8" fill="url(#pill)" opacity="1" stroke="#15102a" stroke-width="1" filter="url(#soft)"/>
<rect x="118.0" y="654" width="48" height="5" rx="3" ry="3" fill="#ffffff" opacity="0.06"/>
</g>
<text x="142.0" y="684" font-family="Menlo, monospace" font-size="8" font-weight="800" fill="#2b2356" text-anchor="middle" letter-spacing="1.5" opacity="0.8">PREV</text>
<g transform="rotate(-20 210.0 660)">
<ellipse cx="210.0" cy="664" rx="28" ry="10" fill="#000" opacity="0.18"/>
<rect x="182.0" y="652" width="56" height="16" rx="8" ry="8" fill="url(#pill)" opacity="1" stroke="#15102a" stroke-width="1" filter="url(#soft)"/>
<rect x="186.0" y="654" width="48" height="5" rx="3" ry="3" fill="#ffffff" opacity="0.06"/>
</g>
<text x="210.0" y="684" font-family="Menlo, monospace" font-size="8" font-weight="800" fill="#2b2356" text-anchor="middle" letter-spacing="1.5" opacity="0.8">LAP</text>
<g transform="rotate(-20 280 672)">
<rect x="248" y="648" width="60" height="48" rx="9" ry="9" fill="#000" opacity="0.1"/>
<rect x="254" y="654" width="48" height="4" rx="2" ry="2" fill="#2b2356" opacity="0.75"/>
<rect x="254" y="663" width="48" height="4" rx="2" ry="2" fill="#2b2356" opacity="0.75"/>
<rect x="254" y="672" width="48" height="4" rx="2" ry="2" fill="#2b2356" opacity="0.75"/>
<rect x="254" y="681" width="48" height="4" rx="2" ry="2" fill="#2b2356" opacity="0.75"/>
<rect x="254" y="690" width="48" height="4" rx="2" ry="2" fill="#2b2356" opacity="0.75"/>
</g>
</g>
<text x="180.0" y="824" font-family="Menlo, monospace" font-size="13" font-weight="700" fill="#6a6a76" text-anchor="middle" letter-spacing="1" opacity="1">iPhone &#183; active workout</text>
</g>
<g transform="translate(560,250)">
<rect x="229" y="83.39999999999999" width="9" height="46" rx="5" ry="5" fill="#5a5a64" opacity="1"/>
<circle cx="234" cy="106.39999999999999" r="5" fill="#76767e"/>
<rect x="230" y="155.68" width="7" height="34" rx="4" ry="4" fill="#3a3a42" opacity="1"/>
<rect x="0" y="0" width="232" height="278" rx="62" ry="62" fill="#08080b" opacity="1" filter="url(#soft)"/>
<rect x="2" y="2" width="228" height="274" rx="60" ry="60" fill="none" opacity="1" stroke="#3a3a42" stroke-width="1.3"/>
<clipPath id="wdisp"><rect x="10" y="10" width="212" height="258" rx="52"/></clipPath>
<g clip-path="url(#wdisp)">
<rect x="10" y="10" width="212" height="258" fill="url(#glass)"/>
<rect x="14" y="14" width="204" height="250" rx="48" ry="48" fill="none" opacity="0.55" stroke="#574a9c" stroke-width="3"/>
<clipPath id="wgclip"><rect x="10" y="10" width="212" height="258" rx="52"/></clipPath>
<g clip-path="url(#wgclip)"><rect x="10" y="13" width="212" height="1.2" fill="#000" opacity="0.18"/><rect x="10" y="17" width="212" height="1.2" fill="#000" opacity="0.18"/><rect x="10" y="21" width="212" height="1.2" fill="#000" opacity="0.18"/><rect x="10" y="25" width="212" height="1.2" fill="#000" opacity="0.18"/><rect x="10" y="29" width="212" height="1.2" fill="#000" opacity="0.18"/><rect x="10" y="33" width="212" height="1.2" fill="#000" opacity="0.18"/><rect x="10" y="37" width="212" height="1.2" fill="#000" opacity="0.18"/><rect x="10" y="41" width="212" height="1.2" fill="#000" opacity="0.18"/><rect x="10" y="45" width="212" height="1.2" fill="#000" opacity="0.18"/><rect x="10" y="49" width="212" height="1.2" fill="#000" opacity="0.18"/><rect x="10" y="53" width="212" height="1.2" fill="#000" opacity="0.18"/><rect x="10" y="57" width="212" height="1.2" fill="#000" opacity="0.18"/><rect x="10" y="61" width="212" height="1.2" fill="#000" opacity="0.18"/><rect x="10" y="65" width="212" height="1.2" fill="#000" opacity="0.18"/><rect x="10" y="69" width="212" height="1.2" fill="#000" opacity="0.18"/><rect x="10" y="73" width="212" height="1.2" fill="#000" opacity="0.18"/><rect x="10" y="77" width="212" height="1.2" fill="#000" opacity="0.18"/><rect x="10" y="81" width="212" height="1.2" fill="#000" opacity="0.18"/><rect x="10" y="85" width="212" height="1.2" fill="#000" opacity="0.18"/><rect x="10" y="89" width="212" height="1.2" fill="#000" opacity="0.18"/><rect x="10" y="93" width="212" height="1.2" fill="#000" opacity="0.18"/><rect x="10" y="97" width="212" height="1.2" fill="#000" opacity="0.18"/><rect x="10" y="101" width="212" height="1.2" fill="#000" opacity="0.18"/><rect x="10" y="105" width="212" height="1.2" fill="#000" opacity="0.18"/><rect x="10" y="109" width="212" height="1.2" fill="#000" opacity="0.18"/><rect x="10" y="113" width="212" height="1.2" fill="#000" opacity="0.18"/><rect x="10" y="117" width="212" height="1.2" fill="#000" opacity="0.18"/><rect x="10" y="121" width="212" height="1.2" fill="#000" opacity="0.18"/><rect x="10" y="125" width="212" height="1.2" fill="#000" opacity="0.18"/><rect x="10" y="129" width="212" height="1.2" fill="#000" opacity="0.18"/><rect x="10" y="133" width="212" height="1.2" fill="#000" opacity="0.18"/><rect x="10" y="137" width="212" height="1.2" fill="#000" opacity="0.18"/><rect x="10" y="141" width="212" height="1.2" fill="#000" opacity="0.18"/><rect x="10" y="145" width="212" height="1.2" fill="#000" opacity="0.18"/><rect x="10" y="149" width="212" height="1.2" fill="#000" opacity="0.18"/><rect x="10" y="153" width="212" height="1.2" fill="#000" opacity="0.18"/><rect x="10" y="157" width="212" height="1.2" fill="#000" opacity="0.18"/><rect x="10" y="161" width="212" height="1.2" fill="#000" opacity="0.18"/><rect x="10" y="165" width="212" height="1.2" fill="#000" opacity="0.18"/><rect x="10" y="169" width="212" height="1.2" fill="#000" opacity="0.18"/><rect x="10" y="173" width="212" height="1.2" fill="#000" opacity="0.18"/><rect x="10" y="177" width="212" height="1.2" fill="#000" opacity="0.18"/><rect x="10" y="181" width="212" height="1.2" fill="#000" opacity="0.18"/><rect x="10" y="185" width="212" height="1.2" fill="#000" opacity="0.18"/><rect x="10" y="189" width="212" height="1.2" fill="#000" opacity="0.18"/><rect x="10" y="193" width="212" height="1.2" fill="#000" opacity="0.18"/><rect x="10" y="197" width="212" height="1.2" fill="#000" opacity="0.18"/><rect x="10" y="201" width="212" height="1.2" fill="#000" opacity="0.18"/><rect x="10" y="205" width="212" height="1.2" fill="#000" opacity="0.18"/><rect x="10" y="209" width="212" height="1.2" fill="#000" opacity="0.18"/><rect x="10" y="213" width="212" height="1.2" fill="#000" opacity="0.18"/><rect x="10" y="217" width="212" height="1.2" fill="#000" opacity="0.18"/><rect x="10" y="221" width="212" height="1.2" fill="#000" opacity="0.18"/><rect x="10" y="225" width="212" height="1.2" fill="#000" opacity="0.18"/><rect x="10" y="229" width="212" height="1.2" fill="#000" opacity="0.18"/><rect x="10" y="233" width="212" height="1.2" fill="#000" opacity="0.18"/><rect x="10" y="237" width="212" height="1.2" fill="#000" opacity="0.18"/><rect x="10" y="241" width="212" height="1.2" fill="#000" opacity="0.18"/><rect x="10" y="245" width="212" height="1.2" fill="#000" opacity="0.18"/><rect x="10" y="249" width="212" height="1.2" fill="#000" opacity="0.18"/><rect x="10" y="253" width="212" height="1.2" fill="#000" opacity="0.18"/><rect x="10" y="257" width="212" height="1.2" fill="#000" opacity="0.18"/><rect x="10" y="261" width="212" height="1.2" fill="#000" opacity="0.18"/><rect x="10" y="265" width="212" height="1.2" fill="#000" opacity="0.18"/></g>
<text x="32" y="44" font-family="Menlo, monospace" font-size="20" font-weight="800" fill="#ffd400" text-anchor="start" letter-spacing="0" opacity="1" filter="url(#glowS)">142</text>
<text x="72" y="44" font-family="Menlo, monospace" font-size="11" font-weight="700" fill="#ffd400" text-anchor="start" letter-spacing="0" opacity="1">&#9829;Z3</text>
<text x="200" y="44" font-family="Menlo, monospace" font-size="13" font-weight="800" fill="#21e6ff" text-anchor="end" letter-spacing="0" opacity="1">3/8</text>
<text x="200" y="56" font-family="Menlo, monospace" font-size="7" font-weight="700" fill="#3a7a8f" text-anchor="end" letter-spacing="1" opacity="1">STAGE</text>
<g filter="url(#glowM)"><polygon points="31.78,63.24 35.56,60.54 50.44,60.54 54.22,63.24 50.44,65.94 35.56,65.94" fill="#2bff67" opacity="1"/>
<polygon points="31.78,86.0 35.56,83.3 50.44,83.3 54.22,86.0 50.44,88.7 35.56,88.7" fill="#0d5a26" opacity="0.13"/>
<polygon points="31.78,108.76 35.56,106.06 50.44,106.06 54.22,108.76 50.44,111.46000000000001 35.56,111.46000000000001" fill="#2bff67" opacity="1"/>
<polygon points="31.24,64.86 33.94,68.64 33.94,81.14 31.24,84.92 28.54,81.14 28.54,68.64" fill="#2bff67" opacity="1"/>
<polygon points="54.76,64.86 57.46,68.64 57.46,81.14 54.76,84.92 52.059999999999995,81.14 52.059999999999995,68.64" fill="#2bff67" opacity="1"/>
<polygon points="31.24,87.08 33.94,90.86 33.94,103.36 31.24,107.14 28.54,103.36 28.54,90.86" fill="#2bff67" opacity="1"/>
<polygon points="54.76,87.08 57.46,90.86 57.46,103.36 54.76,107.14 52.059999999999995,103.36 52.059999999999995,90.86" fill="#2bff67" opacity="1"/>
<polygon points="70.78,63.24 74.56,60.54 89.44,60.54 93.22,63.24 89.44,65.94 74.56,65.94" fill="#0d5a26" opacity="0.13"/>
<polygon points="70.78,86.0 74.56,83.3 89.44,83.3 93.22,86.0 89.44,88.7 74.56,88.7" fill="#0d5a26" opacity="0.13"/>
<polygon points="70.78,108.76 74.56,106.06 89.44,106.06 93.22,108.76 89.44,111.46000000000001 74.56,111.46000000000001" fill="#0d5a26" opacity="0.13"/>
<polygon points="70.24,64.86 72.94,68.64 72.94,81.14 70.24,84.92 67.53999999999999,81.14 67.53999999999999,68.64" fill="#0d5a26" opacity="0.13"/>
<polygon points="93.76,64.86 96.46000000000001,68.64 96.46000000000001,81.14 93.76,84.92 91.06,81.14 91.06,68.64" fill="#2bff67" opacity="1"/>
<polygon points="70.24,87.08 72.94,90.86 72.94,103.36 70.24,107.14 67.53999999999999,103.36 67.53999999999999,90.86" fill="#0d5a26" opacity="0.13"/>
<polygon points="93.76,87.08 96.46000000000001,90.86 96.46000000000001,103.36 93.76,107.14 91.06,103.36 91.06,90.86" fill="#2bff67" opacity="1"/>
<circle cx="110.5" cy="77.68" r="3.12" fill="#2bff67"/>
<circle cx="110.5" cy="94.32" r="3.12" fill="#2bff67"/>
<polygon points="118.78,63.24 122.56,60.54 137.44,60.54 141.22,63.24 137.44,65.94 122.56,65.94" fill="#0d5a26" opacity="0.13"/>
<polygon points="118.78,86.0 122.56,83.3 137.44,83.3 141.22,86.0 137.44,88.7 122.56,88.7" fill="#2bff67" opacity="1"/>
<polygon points="118.78,108.76 122.56,106.06 137.44,106.06 141.22,108.76 137.44,111.46000000000001 122.56,111.46000000000001" fill="#0d5a26" opacity="0.13"/>
<polygon points="118.24,64.86 120.94,68.64 120.94,81.14 118.24,84.92 115.53999999999999,81.14 115.53999999999999,68.64" fill="#2bff67" opacity="1"/>
<polygon points="141.76,64.86 144.45999999999998,68.64 144.45999999999998,81.14 141.76,84.92 139.06,81.14 139.06,68.64" fill="#2bff67" opacity="1"/>
<polygon points="118.24,87.08 120.94,90.86 120.94,103.36 118.24,107.14 115.53999999999999,103.36 115.53999999999999,90.86" fill="#0d5a26" opacity="0.13"/>
<polygon points="141.76,87.08 144.45999999999998,90.86 144.45999999999998,103.36 141.76,107.14 139.06,103.36 139.06,90.86" fill="#2bff67" opacity="1"/>
<polygon points="157.78,63.24 161.56,60.54 176.44,60.54 180.22,63.24 176.44,65.94 161.56,65.94" fill="#2bff67" opacity="1"/>
<polygon points="157.78,86.0 161.56,83.3 176.44,83.3 180.22,86.0 176.44,88.7 161.56,88.7" fill="#2bff67" opacity="1"/>
<polygon points="157.78,108.76 161.56,106.06 176.44,106.06 180.22,108.76 176.44,111.46000000000001 161.56,111.46000000000001" fill="#2bff67" opacity="1"/>
<polygon points="157.24,64.86 159.94,68.64 159.94,81.14 157.24,84.92 154.54000000000002,81.14 154.54000000000002,68.64" fill="#2bff67" opacity="1"/>
<polygon points="180.76,64.86 183.45999999999998,68.64 183.45999999999998,81.14 180.76,84.92 178.06,81.14 178.06,68.64" fill="#2bff67" opacity="1"/>
<polygon points="157.24,87.08 159.94,90.86 159.94,103.36 157.24,107.14 154.54000000000002,103.36 154.54000000000002,90.86" fill="#2bff67" opacity="1"/>
<polygon points="180.76,87.08 183.45999999999998,90.86 183.45999999999998,103.36 180.76,107.14 178.06,103.36 178.06,90.86" fill="#2bff67" opacity="1"/></g>
<text x="116.0" y="127" font-family="Menlo, monospace" font-size="8" font-weight="800" fill="#21e6ff" text-anchor="middle" letter-spacing="2" opacity="0.85">WORK REMAINING</text>
<rect x="28.0" y="138" width="19.375" height="7" rx="2" ry="2" fill="#2bff67" opacity="1" filter="url(#glowS)"/>
<rect x="50.375" y="138" width="19.375" height="7" rx="2" ry="2" fill="#2bff67" opacity="1" filter="url(#glowS)"/>
<rect x="72.75" y="138" width="19.375" height="7" rx="2" ry="2" fill="#2bff67" opacity="1" filter="url(#glowS)"/>
<rect x="95.125" y="138" width="19.375" height="7" rx="2" ry="2" fill="#0d5a26" opacity="0.4"/>
<rect x="117.5" y="138" width="19.375" height="7" rx="2" ry="2" fill="#0d5a26" opacity="0.4"/>
<rect x="139.875" y="138" width="19.375" height="7" rx="2" ry="2" fill="#0d5a26" opacity="0.4"/>
<rect x="162.25" y="138" width="19.375" height="7" rx="2" ry="2" fill="#0d5a26" opacity="0.4"/>
<rect x="184.625" y="138" width="19.375" height="7" rx="2" ry="2" fill="#0d5a26" opacity="0.4"/>
<rect x="28.0" y="156" width="84.0" height="34" rx="5" ry="5" fill="#04030f" opacity="1" stroke="#2bff67" stroke-width="1.1" filter="url(#glowS)"/>
<text x="35.0" y="169" font-family="Menlo, monospace" font-size="7" font-weight="800" fill="#2bff67" text-anchor="start" letter-spacing="1" opacity="1">DIST</text>
<text x="70.0" y="185" font-family="Menlo, monospace" font-size="15" font-weight="800" fill="#f4f4ff" text-anchor="middle" letter-spacing="0" opacity="1">2.15</text>
<rect x="120.0" y="156" width="84.0" height="34" rx="5" ry="5" fill="#04030f" opacity="1" stroke="#21e6ff" stroke-width="1.1" filter="url(#glowS)"/>
<text x="127.0" y="169" font-family="Menlo, monospace" font-size="7" font-weight="800" fill="#21e6ff" text-anchor="start" letter-spacing="1" opacity="1">PACE</text>
<text x="162.0" y="185" font-family="Menlo, monospace" font-size="15" font-weight="800" fill="#f4f4ff" text-anchor="middle" letter-spacing="0" opacity="1">5:42</text>
<text x="28" y="206" font-family="Menlo, monospace" font-size="7" font-weight="800" fill="#ff2bd6" text-anchor="start" letter-spacing="1" opacity="1">SPM</text>
<text x="204" y="207" font-family="Menlo, monospace" font-size="14" font-weight="800" fill="#f4f4ff" text-anchor="end" letter-spacing="0" opacity="1">168</text>
<rect x="10" y="10" width="212" height="258" fill="url(#vign)" opacity="0.55" clip-path="url(#wgclip)"/>
</g>
<text x="116.0" y="302" font-family="Menlo, monospace" font-size="13" font-weight="700" fill="#6a6a76" text-anchor="middle" letter-spacing="1" opacity="1">Apple Watch &#183; same screen</text>
<text x="116.0" y="320" font-family="Menlo, monospace" font-size="10" font-weight="600" fill="#9a9aa4" text-anchor="middle" letter-spacing="0" opacity="1">(LCD + 7-seg + scanlines; no D-pad)</text>
</g>
</svg>